<svg width="342" height="260" viewBox="0 0 342 260" fill="none" xmlns="http://www.w3.org/2000/svg">
<rect width="342" height="248" transform="translate(0 12)" fill="black" fill-opacity="0.4"/>
<path d="M108.102 31.0997V31.9273H105.979V31.0997H108.102ZM108.102 36.7131H105.979V35.8855H108.102V36.7131ZM100.905 31.9273H92.2691V35.8855H100.905V36.7131H94.536V40.5993H100.905V41.5708H94.3561V45.2771H100.905V46.2486H92.7728V50.3147H100.905V52.7255H105.979V50.3147H115.154V46.2486H105.979V45.2771H113.499V41.5708H105.979V40.5993H113.247V35.8855H115.946V31.9273H113.247V27.2136H105.979V25.5224H100.905V27.2136H94.68V31.0997H100.905V31.9273ZM90.5779 37.1089L89.7143 37.2168H88.9586C90.326 34.0144 91.6574 30.6679 92.7009 27.8253L89.1386 26.8897L88.3829 27.0696H82.0499V31.6035H86.152C84.8926 34.698 83.3093 38.3323 81.906 41.3909L86.6197 42.5783L86.9796 41.7507H88.4189C88.203 43.4779 87.9151 45.0612 87.5553 46.5005C87.0515 45.5649 86.5838 44.5214 86.188 43.298L82.1219 44.7013C83.0574 47.58 84.2089 49.8829 85.5403 51.718C84.5327 53.5532 83.2733 54.9925 81.6901 56.1079C82.8055 56.7556 84.8206 58.5908 85.6122 59.5983C87.0156 58.5188 88.239 57.1155 89.2465 55.3523C93.0607 57.9431 97.8465 58.5908 103.64 58.5908H114.507C114.83 57.0795 115.694 54.6686 116.486 53.4812C113.427 53.6251 106.338 53.6251 103.784 53.6251C98.89 53.5891 94.608 53.1214 91.2975 50.8184C92.485 47.2921 93.2766 42.9741 93.6364 37.7566L90.5779 37.1089ZM141.35 31.6755C142.034 32.683 142.717 33.8344 143.041 34.6261H137.32C138.183 33.7985 139.047 32.7909 139.875 31.6755H141.35ZM138.759 39.8076C138.795 39.3398 138.831 38.8361 138.831 38.3683V37.9365H142.753V40.3474C142.034 39.6637 141.17 38.944 140.414 38.4043L138.759 39.8076ZM151.569 51.1783V47.1482H137.536V45.349H135.701C137.104 44.3415 137.896 43.0821 138.327 41.7507C139.335 42.6863 140.342 43.7658 140.882 44.5574L142.861 42.7942C143.005 43.7298 143.293 44.2695 143.725 44.7373C144.373 45.421 145.452 45.7448 146.46 45.7448H148.295C148.942 45.7448 149.806 45.6009 150.346 45.313C150.957 44.9892 151.389 44.4854 151.677 43.8017C151.929 43.19 152.109 41.6787 152.217 40.3114C151.137 39.9516 149.626 39.1959 148.906 38.5122C148.87 39.6277 148.834 40.4913 148.762 40.8871C148.691 41.3189 148.619 41.4988 148.547 41.5708C148.439 41.6428 148.367 41.6428 148.259 41.6428H147.935C147.827 41.6428 147.719 41.6068 147.683 41.4628C147.611 41.3549 147.647 41.0311 147.647 40.4553V34.6261H143.365L147.539 33.5106C147.287 32.9708 146.891 32.3232 146.424 31.6755H151.821V27.6454H142.357C142.609 27.1416 142.825 26.6018 143.041 26.0981L138.076 24.8747C137.32 26.9257 136.024 28.9767 134.477 30.596V27.6454H127.281C127.532 27.1776 127.784 26.6738 128 26.206L123.143 24.8747C122.027 27.4654 119.976 30.1282 117.781 31.7834C118.969 32.4311 121.02 33.7985 121.991 34.6261C122.855 33.7985 123.79 32.7909 124.654 31.6755H124.726C125.373 32.719 125.985 33.9424 126.237 34.77L130.411 33.5826C130.195 33.0428 129.835 32.3591 129.404 31.6755H133.362C133.11 31.8914 132.894 32.0713 132.642 32.2512C133.865 32.7909 136.024 33.8344 137.14 34.6261H134.117V38.2244C134.117 39.4478 133.973 40.5993 132.822 41.6068L132.75 40.0955L128.612 40.6352V38.2963H132.786V34.77H119.652V38.2963H123.898V41.2829C121.955 41.4988 120.192 41.7147 118.717 41.8946L119.292 45.9607C122.603 45.457 126.885 44.8453 131.095 44.2335C131.563 44.6653 132.03 45.1331 132.462 45.5649V47.1482H118.501V51.1783H128.648C125.769 52.6536 121.775 53.7691 117.853 54.3448C118.897 55.3883 120.336 57.3314 121.056 58.5908C125.23 57.6552 129.296 55.8561 132.462 53.5172V59.2745H137.536V53.5891C140.666 55.964 144.732 57.6552 148.87 58.5188C149.59 57.1874 151.065 55.1364 152.181 54.0569C148.043 53.6251 143.905 52.5816 140.954 51.1783H151.569ZM155.347 37.6486V43.334C156.355 43.262 157.938 43.19 158.982 43.19H168.373C168.157 45.9967 167.474 48.4795 166.07 50.5666C164.631 52.5816 162.112 54.6326 159.701 55.5322L164.811 59.2025C168.085 57.5473 170.892 54.6326 172.115 52.0778C173.339 49.631 174.238 46.7883 174.49 43.19H182.551C183.63 43.19 185.141 43.226 186.113 43.298V37.6486C185.105 37.8286 183.306 37.9005 182.551 37.9005H158.982C157.866 37.9005 156.463 37.7926 155.347 37.6486ZM181.507 26.1341L178.125 27.5014C178.305 27.7893 178.52 28.1131 178.7 28.437C177.513 28.5809 176.218 28.6529 175.03 28.6529H163.623C162.4 28.6529 160.673 28.5449 159.449 28.365V33.9424C160.637 33.8704 162.364 33.7985 163.623 33.7985H175.03C176.397 33.7985 177.873 33.8704 179.204 33.9424V29.2646C179.816 30.3801 180.428 31.5675 180.895 32.5031L184.314 31.0637C183.666 29.8043 182.407 27.4654 181.507 26.1341ZM185.933 24.4069L182.551 25.7742C183.522 27.1416 184.674 29.2646 185.393 30.7399L188.776 29.3006C188.164 28.0772 186.869 25.7742 185.933 24.4069ZM192.086 38.7281V45.6009C193.561 45.4929 196.26 45.385 198.311 45.385H217.418C218.893 45.385 220.908 45.5649 221.844 45.6009V38.7281C220.801 38.8001 219.037 38.98 217.418 38.98H198.311C196.548 38.98 193.525 38.8361 192.086 38.7281ZM246.097 27.3575L239.8 25.4144C239.404 26.8177 238.54 28.6889 237.892 29.6964C235.985 32.719 232.855 37.3968 226.486 41.3189L231.2 44.9532C234.582 42.6143 238.036 39.1599 240.663 35.7415H249.911C249.443 37.6127 248.076 40.2754 246.492 42.5783C244.405 41.211 242.318 39.9156 240.663 38.944L236.777 42.9382C238.396 43.9817 240.519 45.457 242.678 47.0402C239.908 49.7749 236.129 52.4737 229.94 54.4167L235.014 58.8067C240.339 56.7556 244.297 53.841 247.392 50.6385C248.867 51.826 250.163 52.9414 251.098 53.805L255.272 48.8394C254.265 48.0477 252.861 47.0042 251.314 45.8888C253.797 42.3624 255.524 38.6922 256.46 36.0294C256.856 34.9499 257.395 33.8704 257.863 33.0788L253.473 30.3441C252.538 30.6319 251.098 30.8119 249.911 30.8119H243.938C244.477 29.8763 245.305 28.473 246.097 27.3575Z" fill="white"/>
<path d="M76.505 220.164C76.6129 220.776 76.8288 221.819 77.0807 223.151C74.1301 223.619 71.5393 223.978 70.3879 224.122C69.2724 224.266 68.1209 224.338 66.8615 224.41L68.013 230.347C69.3444 229.988 70.3159 229.772 71.5393 229.52C72.5109 229.34 75.1017 228.908 78.0882 228.44C78.3761 230.024 78.7 231.715 79.0238 233.37C75.6414 233.91 72.5828 234.377 70.9996 234.629C69.7762 234.809 67.977 235.025 66.9695 235.061L68.1929 240.818C69.0205 240.603 70.3879 240.351 72.0071 240.063C73.4824 239.775 76.577 239.235 79.9953 238.659C80.4991 241.394 80.9309 243.661 81.1108 244.777C81.3267 245.856 81.3987 247.151 81.5786 248.555L87.8397 247.475C87.5158 246.216 87.156 244.885 86.9041 243.805C86.6522 242.582 86.2204 240.351 85.7167 237.724C88.6673 237.256 91.33 236.824 92.9133 236.572C94.2806 236.357 95.9358 236.069 97.0153 235.997L95.8639 230.275C94.8204 230.563 93.3091 230.923 91.9057 231.211C90.3945 231.499 87.6957 231.967 84.7091 232.47C84.3853 230.779 84.0614 229.124 83.7736 227.541C86.4723 227.109 88.9191 226.713 90.2865 226.497C91.438 226.353 93.0932 226.101 94.0287 226.029L92.9852 220.344C91.9777 220.632 90.3585 220.992 89.171 221.208C88.0196 221.424 85.5727 221.855 82.802 222.287C82.5501 220.884 82.3342 219.804 82.2623 219.265C82.0824 218.365 81.9744 217.034 81.8665 216.314L75.7134 217.286C76.0012 218.185 76.2531 219.085 76.505 220.164ZM114.647 222.683L108.818 224.05C109.25 224.914 109.681 225.885 109.933 226.821C110.185 227.577 110.473 228.62 110.761 229.772C109.358 230.024 108.278 230.203 107.81 230.275C106.551 230.491 105.507 230.599 104.32 230.707L105.651 235.889C106.803 235.637 109.25 235.097 112.02 234.485C113.28 239.235 114.611 244.453 115.187 246.54C115.511 247.619 115.763 248.951 115.906 249.994L121.808 248.555C121.52 247.799 120.944 245.928 120.764 245.316C120.152 243.301 118.749 238.156 117.418 233.334C120.656 232.65 123.463 232.075 124.29 231.931C123.463 233.478 121.088 236.357 119.469 237.868L124.255 240.243C126.809 237.4 130.372 231.787 131.919 228.584L128.393 226.101C127.853 226.353 127.061 226.605 126.342 226.749C124.83 227.073 120.368 227.937 116.122 228.764C115.798 227.577 115.511 226.497 115.259 225.634C115.043 224.698 114.791 223.655 114.647 222.683ZM144.873 218.077L140.735 222.503C143.326 224.338 147.859 228.296 149.766 230.383L154.228 225.814C152.069 223.511 147.356 219.768 144.873 218.077ZM139.547 241.97L143.254 247.727C147.787 247.008 152.465 245.136 156.135 242.977C162.145 239.451 167.254 234.449 170.133 229.34L166.75 223.187C164.34 228.26 159.482 233.838 153.005 237.58C149.479 239.631 144.837 241.25 139.547 241.97ZM198.272 223.726C198.272 222.575 199.207 221.639 200.359 221.639C201.51 221.639 202.446 222.575 202.446 223.726C202.446 224.878 201.51 225.814 200.359 225.814C199.207 225.814 198.272 224.878 198.272 223.726ZM195.537 223.726C195.537 226.425 197.66 228.548 200.359 228.548C203.057 228.548 205.216 226.425 205.216 223.726C205.216 221.028 203.057 218.869 200.359 218.869C197.66 218.869 195.537 221.028 195.537 223.726ZM172.796 235.313L178.049 240.746C178.733 239.703 179.632 238.336 180.496 237.076C181.863 235.133 184.13 231.823 185.39 230.167C186.289 228.98 187.081 228.944 188.124 229.988C189.312 231.211 192.406 234.665 194.529 237.22C196.544 239.631 199.495 243.373 201.834 246.288L206.656 241.106C203.885 238.156 200.143 234.162 197.732 231.571C195.537 229.196 192.982 226.533 190.427 224.122C187.441 221.316 185.066 221.711 182.799 224.41C180.208 227.505 177.581 230.779 175.998 232.362C174.811 233.55 173.947 234.377 172.796 235.313ZM210.974 228.728V235.601C212.449 235.493 215.148 235.385 217.199 235.385H236.306C237.781 235.385 239.796 235.565 240.732 235.601V228.728C239.688 228.8 237.925 228.98 236.306 228.98H217.199C215.436 228.98 212.413 228.836 210.974 228.728ZM251.03 218.077L246.892 222.503C249.483 224.338 254.016 228.296 255.924 230.383L260.385 225.814C258.226 223.511 253.513 219.768 251.03 218.077ZM245.704 241.97L249.411 247.727C253.944 247.008 258.622 245.136 262.293 242.977C268.302 239.451 273.411 234.449 276.29 229.34L272.908 223.187C270.497 228.26 265.639 233.838 259.162 237.58C255.636 239.631 250.994 241.25 245.704 241.97Z" fill="white"/>
<path d="M62.2308 88.7614L57.092 83.9974C55.968 84.3186 52.4351 84.5327 50.6687 84.5327H22.8875C20.5323 84.5327 18.2841 84.2651 16.0895 83.9439V92.8831C18.8729 92.6155 20.5323 92.4549 22.8875 92.4549H49.3305C48.1528 94.7031 44.4594 98.7712 40.4983 101.287L47.1893 106.64C52.0069 103.161 57.092 96.4695 59.822 91.9731C60.3573 91.1167 61.5884 89.5643 62.2308 88.7614ZM40.1771 96.0413H30.7562C31.0774 97.9683 31.1844 99.5206 31.1844 101.394C31.1844 110.119 29.8462 114.669 23.9046 119.165C21.6564 120.878 19.6759 121.788 17.8024 122.431L25.3498 128.586C40.4448 120.182 40.1771 108.62 40.1771 96.0413ZM91.6177 92.669L83.9097 95.1848C85.3549 98.1824 87.6031 104.499 88.3525 107.175L96.1141 104.499C95.3112 101.983 92.6883 95.0242 91.6177 92.669ZM111.584 97.0583L102.43 94.1142C101.949 100.752 99.4328 108.032 95.9 112.474C91.4571 118.095 83.642 122.163 77.968 123.608L84.7661 130.567C91.1895 128.105 97.934 123.448 102.912 116.917C106.445 112.314 108.693 106.854 110.085 101.715C110.46 100.431 110.834 99.1459 111.584 97.0583ZM79.1992 95.5595L71.3841 98.343C72.8293 100.912 75.3987 107.925 76.3087 110.815L84.2308 107.871C83.1603 104.766 80.698 98.5571 79.1992 95.5595ZM160.455 85.2821C160.455 83.7298 161.74 82.4451 163.292 82.4451C164.844 82.4451 166.129 83.7298 166.129 85.2821C166.129 86.8344 164.844 88.1191 163.292 88.1191C161.74 88.1191 160.455 86.8344 160.455 85.2821ZM156.654 85.2821C156.654 85.5497 156.654 85.7638 156.708 85.978C155.263 86.1921 153.764 86.2456 152.854 86.2456H129.248C127.482 86.2456 123.949 85.978 122.289 85.7638V94.9172C123.681 94.8101 126.625 94.6495 129.248 94.6495H152.8C152.105 98.9318 150.338 104.231 146.912 108.46C142.684 113.706 136.635 118.416 125.876 120.825L132.941 128.586C142.362 125.535 149.91 120.022 154.727 113.545C159.331 107.336 161.526 99.1994 162.81 94.1678C162.971 93.5254 163.185 92.7225 163.453 91.9196C166.932 91.9196 169.929 88.922 169.929 85.2821C169.929 81.6422 166.932 78.6446 163.292 78.6446C159.652 78.6446 156.654 81.6422 156.654 85.2821ZM177.156 86.2991C177.263 87.9585 177.263 90.4208 177.263 92.1337V118.148C177.263 121.092 177.102 126.231 177.102 126.231H186.041V123.394H209.915C209.861 125 209.808 126.231 209.808 126.231H218.801C218.801 126.231 218.694 120.557 218.694 118.255V92.1337C218.694 90.3137 218.694 88.1191 218.801 86.3527C216.66 86.4062 214.625 86.4062 213.18 86.4062H183.311C181.759 86.4062 179.35 86.3527 177.156 86.2991ZM185.988 94.7031H209.969V115.097H185.988V94.7031ZM229.132 99.3065V109.53C231.326 109.37 235.341 109.209 238.392 109.209H266.815C269.01 109.209 272.008 109.477 273.399 109.53V99.3065C271.847 99.4135 269.224 99.6812 266.815 99.6812H238.392C235.769 99.6812 231.273 99.4671 229.132 99.3065ZM315.312 84.4256L309.959 86.6738C312.047 89.6179 312.957 91.2772 314.67 94.9707L320.183 92.5619C319.005 90.1532 316.918 86.8344 315.312 84.4256ZM322.645 81.3745L317.346 83.8368C319.434 86.6738 320.451 88.1726 322.324 91.8661L327.677 89.2432C326.499 86.8879 324.305 83.6763 322.645 81.3745ZM292.562 120.45C292.562 122.645 292.295 126.231 291.92 128.533H302.09C301.823 126.124 301.502 121.895 301.502 120.45V106.693C307.176 108.727 314.509 111.564 319.915 114.348L323.609 105.302C319.112 103.107 308.728 99.3065 301.502 97.2189V89.8855C301.502 87.3162 301.823 84.9609 302.037 82.9269H291.92C292.348 84.9609 292.562 87.7444 292.562 89.8855V120.45ZM115.224 155.905C113.885 153.336 110.781 149.749 108.211 147.233L102.323 150.82C104.839 153.55 107.783 157.35 108.907 159.866L115.224 155.905ZM78.2892 147.608C75.131 155.477 69.6712 163.292 64.1042 168.109C65.4424 170.036 67.6371 174.265 68.3865 176.139C69.9388 174.693 71.4911 172.98 73.0434 171.161V197.978H81.1262V159.331C82.8926 156.28 84.4449 153.122 85.7296 150.07L78.2892 147.608ZM115.92 168.056L114.849 160.669L99.9681 162.703C99.647 158.207 99.4864 153.282 99.4328 148.09H91.5107C91.6713 153.764 91.8854 159.01 92.2601 163.774L82.625 165.112L83.7491 172.606L92.9559 171.321C94.8829 187.487 99.0581 196.961 108.319 197.925C111.423 198.139 114.742 195.837 116.241 184.81C114.849 184.061 111.37 181.973 109.871 180.314C109.55 186.041 109.014 188.557 107.944 188.45C104.411 187.861 102.002 180.849 100.718 170.197L115.92 168.056ZM167.788 150.177H141.72V157.564H167.788V150.177ZM130.693 147.233C128.177 150.927 123.039 155.798 118.596 158.581C119.934 160.134 121.915 163.238 122.878 165.005C128.177 161.365 134.119 155.637 138.187 150.338L130.693 147.233ZM132.674 159.01C129.248 165.058 123.413 171.268 118.007 175.015C119.559 176.62 122.182 180.153 123.253 181.813C124.377 180.903 125.501 179.832 126.679 178.762V198.085H134.494V169.983C136.581 167.306 138.508 164.523 140.061 161.847L132.674 159.01ZM169.127 165.058H139.472V172.445H154.139V189.146C154.139 189.895 153.817 190.109 152.854 190.109C151.89 190.109 148.358 190.109 145.735 189.949C146.752 192.197 147.769 195.623 148.036 197.925C152.586 197.925 156.173 197.818 158.742 196.64C161.418 195.462 162.114 193.321 162.114 189.36V172.445H169.127V165.058ZM208.363 164.951H205.579V159.384H208.363V164.951ZM208.363 177.37H205.579V171.856H208.363V177.37ZM187.433 171.856H190.056V177.37H187.433V171.856ZM199.156 171.856V177.37H196.479V171.856H199.156ZM196.479 164.951V159.384H199.156V164.951H196.479ZM187.433 159.384H190.056V164.951H187.433V159.384ZM180.582 164.951H173.462V171.856H180.582V177.37H174.372V184.275H221.37V177.37H215.482V171.856H222.173V164.951H215.482V159.384H220.246V152.586H188.932C189.574 151.569 190.11 150.552 190.645 149.482L182.99 147.233C180.742 151.997 176.513 156.708 172.017 159.491C173.837 160.669 176.942 163.131 178.387 164.577C179.136 164.041 179.832 163.399 180.582 162.703V164.951ZM180.367 198.139C182.83 195.195 185.024 190.752 186.148 186.577L178.547 184.757C177.37 188.664 175.068 192.893 172.82 195.141L180.367 198.139ZM188.343 186.898C188.932 190.324 189.307 194.82 189.307 197.496L196.961 196.372C196.908 193.696 196.265 189.36 195.569 186.041L188.343 186.898ZM198.835 187.112C199.959 190.484 201.083 194.873 201.35 197.55L209.166 196.051C208.737 193.321 207.453 189.092 206.168 185.881L198.835 187.112ZM209.326 186.844C211.574 190.377 214.304 195.141 215.375 198.085L223.404 195.462C222.066 192.411 219.122 187.861 216.82 184.543L209.326 186.844ZM263.336 156.066C261.57 154.085 257.716 151.409 254.772 149.642L251.025 154.888C253.969 156.868 257.716 159.813 259.321 161.9L263.336 156.066ZM248.776 168.377C251.828 170.304 255.789 173.248 257.555 175.282L261.463 169.073C259.536 167.092 255.467 164.469 252.416 162.81L248.776 168.377ZM233.842 163.024C233.628 159.545 232.664 154.353 231.326 150.338L225.973 151.73C227.151 155.744 228.061 161.097 228.115 164.577L233.842 163.024ZM277.2 182.669L276.076 175.443L271.044 176.353V147.18H263.764V177.637L248.723 180.314C247.331 178.654 242.888 173.783 241.282 172.445V172.231H248.723V165.005H241.282V162.971L246.046 164.255C247.331 160.99 248.883 155.851 250.275 151.355L243.798 150.017C243.317 153.764 242.246 159.01 241.282 162.542V147.555H234.11V165.005H226.295V172.231H231.594C230.042 176.567 227.686 181.598 225.224 184.596C226.348 186.791 228.007 190.324 228.65 192.732C230.684 189.628 232.557 185.238 234.11 180.635V197.925H241.282V181.01C242.46 183.044 243.584 185.078 244.28 186.63L248.669 180.956L249.74 187.647L263.764 185.131V198.032H271.044V183.793L277.2 182.669Z" fill="#FFD600"/>
<circle cx="307" cy="35" r="35" fill="white"/>
<path d="M287.53 32.1343V34H280.049V32.1343H282.696V24.8367C282.696 24.6774 282.699 24.515 282.705 24.3496C282.711 24.1842 282.721 24.0157 282.733 23.8441L280.987 25.2963C280.864 25.3882 280.745 25.4464 280.628 25.4709C280.512 25.4954 280.401 25.4985 280.297 25.4801C280.193 25.4556 280.101 25.4188 280.022 25.3698C279.942 25.3146 279.881 25.2595 279.838 25.2044L279.038 24.129L283.137 20.6549H285.224V32.1343H287.53ZM298.864 27.3274C298.864 28.4916 298.739 29.5026 298.487 30.3604C298.236 31.2182 297.89 31.929 297.449 32.4927C297.008 33.0503 296.484 33.4669 295.877 33.7427C295.277 34.0123 294.627 34.1471 293.929 34.1471C293.23 34.1471 292.581 34.0123 291.98 33.7427C291.38 33.4669 290.862 33.0503 290.427 32.4927C289.992 31.929 289.649 31.2182 289.398 30.3604C289.153 29.5026 289.03 28.4916 289.03 27.3274C289.03 26.1633 289.153 25.1553 289.398 24.3037C289.649 23.4458 289.992 22.7381 290.427 22.1806C290.862 21.6169 291.38 21.2002 291.98 20.9306C292.581 20.6549 293.23 20.517 293.929 20.517C294.627 20.517 295.277 20.6549 295.877 20.9306C296.484 21.2002 297.008 21.6169 297.449 22.1806C297.89 22.7381 298.236 23.4458 298.487 24.3037C298.739 25.1553 298.864 26.1633 298.864 27.3274ZM296.245 27.3274C296.245 26.3838 296.177 25.6057 296.043 24.993C295.914 24.3802 295.742 23.8962 295.528 23.5408C295.313 23.1854 295.065 22.9373 294.783 22.7964C294.508 22.6554 294.223 22.585 293.929 22.585C293.635 22.585 293.35 22.6554 293.074 22.7964C292.804 22.9373 292.562 23.1854 292.348 23.5408C292.14 23.8962 291.971 24.3802 291.842 24.993C291.714 25.6057 291.649 26.3838 291.649 27.3274C291.649 28.2772 291.714 29.0584 291.842 29.6711C291.971 30.2838 292.14 30.7679 292.348 31.1233C292.562 31.4786 292.804 31.7268 293.074 31.8677C293.35 32.0086 293.635 32.0791 293.929 32.0791C294.223 32.0791 294.508 32.0086 294.783 31.8677C295.065 31.7268 295.313 31.4786 295.528 31.1233C295.742 30.7679 295.914 30.2838 296.043 29.6711C296.177 29.0584 296.245 28.2772 296.245 27.3274ZM304.886 27.9892C304.959 27.2172 304.996 26.4451 305.014 25.7466H312.385V27.9892H304.886ZM312.385 21.4269V23.6695H305.014V21.4269H312.385ZM314.701 19.2946H302.753V25.3422C302.753 28.1362 302.496 31.6471 299.72 34.0184C300.198 34.3309 301.081 35.1397 301.412 35.5992C303.121 34.1654 304.04 32.1618 304.518 30.1031H312.385V32.7684C312.385 33.1544 312.238 33.3015 311.797 33.3015C311.393 33.3015 309.849 33.3199 308.562 33.2464C308.911 33.8529 309.352 34.9007 309.481 35.5441C311.374 35.5441 312.661 35.5073 313.543 35.1213C314.389 34.7536 314.701 34.1287 314.701 32.8052V19.2946ZM334.131 27.9708V25.8201H328.01V23.4121H334.976V21.2247H328.01V18.4307H325.675V21.2247H318.856V23.4121H325.675V25.8201H319.683V27.9708H324.609C322.992 29.956 320.547 31.8493 318.157 32.8971C318.69 33.3566 319.407 34.2573 319.775 34.8272C321.907 33.6691 324.039 31.8126 325.675 29.7171V35.5992H328.01V29.57C329.664 31.6839 331.796 33.5772 333.929 34.7169C334.315 34.1287 335.032 33.228 335.583 32.7684C333.23 31.7574 330.785 29.9376 329.205 27.9708H334.131ZM291.207 51.9229C291.207 51.2979 291.924 50.7832 293.229 50.7832C293.744 50.7832 294.24 50.8383 294.736 50.9119C294.755 51.2427 294.755 51.5001 294.755 51.7023C294.755 52.7684 294.111 53.0442 293.137 53.0442C291.869 53.0442 291.207 52.6214 291.207 51.9229ZM296.96 39.1292H294.479C294.552 39.4785 294.589 40.0483 294.589 40.3975C294.589 40.6181 294.589 40.9122 294.589 41.2615C294.35 41.2615 294.111 41.2615 293.872 41.2615C292.751 41.2615 290.656 41.0777 289.332 40.8571L289.387 42.9526C290.6 43.118 292.733 43.2835 293.891 43.2835C294.111 43.2835 294.332 43.2835 294.571 43.2835C294.552 43.9084 294.552 44.5702 294.552 45.1768C294.258 45.1768 293.964 45.1768 293.67 45.1768C292.696 45.1768 290.435 45.0481 289.24 44.8275L289.259 46.9966C290.472 47.1436 292.567 47.2355 293.633 47.2355C293.964 47.2355 294.277 47.2355 294.589 47.2355C294.608 47.787 294.626 48.3752 294.663 48.945C294.295 48.9083 293.909 48.8899 293.523 48.8899C290.692 48.8899 288.983 50.195 288.983 52.0515C288.983 54 290.527 55.1213 293.468 55.1213C295.894 55.1213 297.089 53.9081 297.089 52.3456C297.089 52.1434 297.089 51.9229 297.071 51.6655C298.541 52.3273 299.791 53.3015 300.784 54.2206L302.107 52.1618C301.041 51.2795 299.277 50.0479 296.96 49.3862C296.905 48.6509 296.869 47.8973 296.832 47.1988C298.596 47.1436 300.03 47.015 301.685 46.8311L301.703 44.6621C300.214 44.8643 298.652 45.0113 296.795 45.1033C296.795 44.5334 296.795 43.8533 296.795 43.2099C298.578 43.118 300.251 42.9526 301.464 42.8055L301.482 40.6916C299.865 40.9674 298.339 41.1144 296.832 41.188C296.832 40.8938 296.832 40.6181 296.85 40.4343C296.869 39.9564 296.905 39.4968 296.96 39.1292ZM305.637 41.3902L305.876 43.9084C308.008 43.4489 311.758 43.0445 313.486 42.8607C312.236 43.7982 310.747 45.8937 310.747 48.5406C310.747 52.5295 314.386 54.5882 318.246 54.8456L319.11 52.3273C315.986 52.1618 313.155 51.0773 313.155 48.0443C313.155 45.8569 314.827 43.4857 317.052 42.8975C318.026 42.6585 319.607 42.6585 320.599 42.6401L320.581 40.2873C319.276 40.3424 317.272 40.4527 315.379 40.6181C312.015 40.8938 308.982 41.1696 307.438 41.2982C307.089 41.335 306.372 41.3718 305.637 41.3902ZM317.971 44.4415L316.611 45.0113C317.199 45.8385 317.585 46.5554 318.044 47.5664L319.441 46.9414C319.092 46.2245 318.43 45.1033 317.971 44.4415ZM320.03 43.596L318.688 44.2209C319.276 45.0297 319.699 45.7099 320.195 46.7025L321.574 46.0407C321.188 45.3238 320.489 44.2393 320.03 43.596ZM326.573 40.6641V45.9212C326.573 46.4788 326.543 47.0303 326.481 47.5756C326.426 48.1209 326.347 48.6877 326.243 49.2759H324.533C324.429 48.6877 324.346 48.1209 324.285 47.5756C324.23 47.0303 324.202 46.4788 324.202 45.9212V40.6641H326.573ZM323.862 52.6673C323.862 52.4651 323.899 52.2752 323.972 52.0975C324.052 51.9137 324.159 51.7574 324.294 51.6288C324.429 51.494 324.585 51.3898 324.763 51.3163C324.947 51.2366 325.146 51.1968 325.36 51.1968C325.569 51.1968 325.762 51.2366 325.939 51.3163C326.123 51.3898 326.282 51.494 326.417 51.6288C326.552 51.7574 326.659 51.9137 326.739 52.0975C326.818 52.2752 326.858 52.4651 326.858 52.6673C326.858 52.8757 326.818 53.0687 326.739 53.2464C326.659 53.424 326.552 53.5803 326.417 53.7151C326.282 53.8438 326.123 53.9449 325.939 54.0184C325.762 54.0919 325.569 54.1287 325.36 54.1287C325.146 54.1287 324.947 54.0919 324.763 54.0184C324.585 53.9449 324.429 53.8438 324.294 53.7151C324.159 53.5803 324.052 53.424 323.972 53.2464C323.899 53.0687 323.862 52.8757 323.862 52.6673Z" fill="black"/>
</svg>
