<svg width="1381" height="286" viewBox="0 0 1381 286" fill="none" xmlns="http://www.w3.org/2000/svg">
<rect width="1381" height="198" transform="translate(0 88)" fill="black" fill-opacity="0.6"/>
<path d="M65.36 140.94V142.205H62.115V140.94H65.36ZM65.36 149.52H62.115V148.255H65.36V149.52ZM54.36 142.205H41.16V148.255H54.36V149.52H44.625V155.46H54.36V156.945H44.35V162.61H54.36V164.095H41.93V170.31H54.36V173.995H62.115V170.31H76.14V164.095H62.115V162.61H73.61V156.945H62.115V155.46H73.225V148.255H77.35V142.205H73.225V135H62.115V132.415H54.36V135H44.845V140.94H54.36V142.205ZM38.575 150.125L37.255 150.29H36.1C38.19 145.395 40.225 140.28 41.82 135.935L36.375 134.505L35.22 134.78H25.54V141.71H31.81C29.885 146.44 27.465 151.995 25.32 156.67L32.525 158.485L33.075 157.22H35.275C34.945 159.86 34.505 162.28 33.955 164.48C33.185 163.05 32.47 161.455 31.865 159.585L25.65 161.73C27.08 166.13 28.84 169.65 30.875 172.455C29.335 175.26 27.41 177.46 24.99 179.165C26.695 180.155 29.775 182.96 30.985 184.5C33.13 182.85 35 180.705 36.54 178.01C42.37 181.97 49.685 182.96 58.54 182.96H75.15C75.645 180.65 76.965 176.965 78.175 175.15C73.5 175.37 62.665 175.37 58.76 175.37C51.28 175.315 44.735 174.6 39.675 171.08C41.49 165.69 42.7 159.09 43.25 151.115L38.575 150.125ZM116.18 141.82C117.225 143.36 118.27 145.12 118.765 146.33H110.02C111.34 145.065 112.66 143.525 113.925 141.82H116.18ZM112.22 154.25C112.275 153.535 112.33 152.765 112.33 152.05V151.39H118.325V155.075C117.225 154.03 115.905 152.93 114.75 152.105L112.22 154.25ZM131.8 171.63V165.47H110.35V162.72H107.545C109.69 161.18 110.9 159.255 111.56 157.22C113.1 158.65 114.64 160.3 115.465 161.51L118.49 158.815C118.71 160.245 119.15 161.07 119.81 161.785C120.8 162.83 122.45 163.325 123.99 163.325H126.795C127.785 163.325 129.105 163.105 129.93 162.665C130.865 162.17 131.525 161.4 131.965 160.355C132.35 159.42 132.625 157.11 132.79 155.02C131.14 154.47 128.83 153.315 127.73 152.27C127.675 153.975 127.62 155.295 127.51 155.9C127.4 156.56 127.29 156.835 127.18 156.945C127.015 157.055 126.905 157.055 126.74 157.055H126.245C126.08 157.055 125.915 157 125.86 156.78C125.75 156.615 125.805 156.12 125.805 155.24V146.33H119.26L125.64 144.625C125.255 143.8 124.65 142.81 123.935 141.82H132.185V135.66H117.72C118.105 134.89 118.435 134.065 118.765 133.295L111.175 131.425C110.02 134.56 108.04 137.695 105.675 140.17V135.66H94.675C95.06 134.945 95.445 134.175 95.775 133.46L88.35 131.425C86.645 135.385 83.51 139.455 80.155 141.985C81.97 142.975 85.105 145.065 86.59 146.33C87.91 145.065 89.34 143.525 90.66 141.82H90.77C91.76 143.415 92.695 145.285 93.08 146.55L99.46 144.735C99.13 143.91 98.58 142.865 97.92 141.82H103.97C103.585 142.15 103.255 142.425 102.87 142.7C104.74 143.525 108.04 145.12 109.745 146.33H105.125V151.83C105.125 153.7 104.905 155.46 103.145 157L103.035 154.69L96.71 155.515V151.94H103.09V146.55H83.015V151.94H89.505V156.505C86.535 156.835 83.84 157.165 81.585 157.44L82.465 163.655C87.525 162.885 94.07 161.95 100.505 161.015C101.22 161.675 101.935 162.39 102.595 163.05V165.47H81.255V171.63H96.765C92.365 173.885 86.26 175.59 80.265 176.47C81.86 178.065 84.06 181.035 85.16 182.96C91.54 181.53 97.755 178.78 102.595 175.205V184.005H110.35V175.315C115.135 178.945 121.35 181.53 127.675 182.85C128.775 180.815 131.03 177.68 132.735 176.03C126.41 175.37 120.085 173.775 115.575 171.63H131.8ZM137.575 150.95V159.64C139.115 159.53 141.535 159.42 143.13 159.42H157.485C157.155 163.71 156.11 167.505 153.965 170.695C151.765 173.775 147.915 176.91 144.23 178.285L152.04 183.895C157.045 181.365 161.335 176.91 163.205 173.005C165.075 169.265 166.45 164.92 166.835 159.42H179.155C180.805 159.42 183.115 159.475 184.6 159.585V150.95C183.06 151.225 180.31 151.335 179.155 151.335H143.13C141.425 151.335 139.28 151.17 137.575 150.95ZM177.56 133.35L172.39 135.44C172.665 135.88 172.995 136.375 173.27 136.87C171.455 137.09 169.475 137.2 167.66 137.2H150.225C148.355 137.2 145.715 137.035 143.845 136.76V145.285C145.66 145.175 148.3 145.065 150.225 145.065H167.66C169.75 145.065 172.005 145.175 174.04 145.285V138.135C174.975 139.84 175.91 141.655 176.625 143.085L181.85 140.885C180.86 138.96 178.935 135.385 177.56 133.35ZM184.325 130.71L179.155 132.8C180.64 134.89 182.4 138.135 183.5 140.39L188.67 138.19C187.735 136.32 185.755 132.8 184.325 130.71ZM193.73 152.6V163.105C195.985 162.94 200.11 162.775 203.245 162.775H232.45C234.705 162.775 237.785 163.05 239.215 163.105V152.6C237.62 152.71 234.925 152.985 232.45 152.985H203.245C200.55 152.985 195.93 152.765 193.73 152.6ZM276.285 135.22L266.66 132.25C266.055 134.395 264.735 137.255 263.745 138.795C260.83 143.415 256.045 150.565 246.31 156.56L253.515 162.115C258.685 158.54 263.965 153.26 267.98 148.035H282.115C281.4 150.895 279.31 154.965 276.89 158.485C273.7 156.395 270.51 154.415 267.98 152.93L262.04 159.035C264.515 160.63 267.76 162.885 271.06 165.305C266.825 169.485 261.05 173.61 251.59 176.58L259.345 183.29C267.485 180.155 273.535 175.7 278.265 170.805C280.52 172.62 282.5 174.325 283.93 175.645L290.31 168.055C288.77 166.845 286.625 165.25 284.26 163.545C288.055 158.155 290.695 152.545 292.125 148.475C292.73 146.825 293.555 145.175 294.27 143.965L287.56 139.785C286.13 140.225 283.93 140.5 282.115 140.5H272.985C273.81 139.07 275.075 136.925 276.285 135.22ZM1048.2 139.51C1048.36 140.445 1048.69 142.04 1049.08 144.075C1044.57 144.79 1040.61 145.34 1038.85 145.56C1037.14 145.78 1035.38 145.89 1033.46 146L1035.22 155.075C1037.25 154.525 1038.74 154.195 1040.61 153.81C1042.09 153.535 1046.05 152.875 1050.62 152.16C1051.06 154.58 1051.55 157.165 1052.05 159.695C1046.88 160.52 1042.2 161.235 1039.78 161.62C1037.91 161.895 1035.16 162.225 1033.62 162.28L1035.49 171.08C1036.76 170.75 1038.85 170.365 1041.32 169.925C1043.58 169.485 1048.31 168.66 1053.53 167.78C1054.3 171.96 1054.96 175.425 1055.24 177.13C1055.57 178.78 1055.68 180.76 1055.95 182.905L1065.52 181.255C1065.03 179.33 1064.48 177.295 1064.09 175.645C1063.71 173.775 1063.05 170.365 1062.28 166.35C1066.79 165.635 1070.86 164.975 1073.28 164.59C1075.37 164.26 1077.9 163.82 1079.55 163.71L1077.79 154.965C1076.19 155.405 1073.88 155.955 1071.74 156.395C1069.43 156.835 1065.3 157.55 1060.74 158.32C1060.24 155.735 1059.75 153.205 1059.3 150.785C1063.43 150.125 1067.17 149.52 1069.26 149.19C1071.02 148.97 1073.55 148.585 1074.98 148.475L1073.39 139.785C1071.85 140.225 1069.37 140.775 1067.56 141.105C1065.8 141.435 1062.06 142.095 1057.82 142.755C1057.44 140.61 1057.11 138.96 1057 138.135C1056.72 136.76 1056.56 134.725 1056.39 133.625L1046.99 135.11C1047.43 136.485 1047.81 137.86 1048.2 139.51ZM1106.5 143.36L1097.59 145.45C1098.25 146.77 1098.91 148.255 1099.29 149.685C1099.68 150.84 1100.12 152.435 1100.56 154.195C1098.41 154.58 1096.76 154.855 1096.05 154.965C1094.12 155.295 1092.53 155.46 1090.71 155.625L1092.75 163.545C1094.51 163.16 1098.25 162.335 1102.48 161.4C1104.41 168.66 1106.44 176.635 1107.32 179.825C1107.82 181.475 1108.2 183.51 1108.42 185.105L1117.44 182.905C1117 181.75 1116.12 178.89 1115.85 177.955C1114.91 174.875 1112.77 167.01 1110.73 159.64C1115.68 158.595 1119.97 157.715 1121.24 157.495C1119.97 159.86 1116.34 164.26 1113.87 166.57L1121.18 170.2C1125.09 165.855 1130.53 157.275 1132.9 152.38L1127.51 148.585C1126.68 148.97 1125.47 149.355 1124.37 149.575C1122.06 150.07 1115.24 151.39 1108.75 152.655C1108.26 150.84 1107.82 149.19 1107.43 147.87C1107.1 146.44 1106.72 144.845 1106.5 143.36ZM1152.7 136.32L1146.37 143.085C1150.33 145.89 1157.26 151.94 1160.18 155.13L1167 148.145C1163.7 144.625 1156.49 138.905 1152.7 136.32ZM1144.56 172.84L1150.22 181.64C1157.15 180.54 1164.3 177.68 1169.91 174.38C1179.1 168.99 1186.91 161.345 1191.31 153.535L1186.14 144.13C1182.45 151.885 1175.03 160.41 1165.13 166.13C1159.74 169.265 1152.64 171.74 1144.56 172.84ZM1234.32 144.955C1234.32 143.195 1235.75 141.765 1237.51 141.765C1239.27 141.765 1240.7 143.195 1240.7 144.955C1240.7 146.715 1239.27 148.145 1237.51 148.145C1235.75 148.145 1234.32 146.715 1234.32 144.955ZM1230.14 144.955C1230.14 149.08 1233.38 152.325 1237.51 152.325C1241.63 152.325 1244.93 149.08 1244.93 144.955C1244.93 140.83 1241.63 137.53 1237.51 137.53C1233.38 137.53 1230.14 140.83 1230.14 144.955ZM1195.38 162.665L1203.41 170.97C1204.45 169.375 1205.83 167.285 1207.15 165.36C1209.24 162.39 1212.7 157.33 1214.63 154.8C1216 152.985 1217.21 152.93 1218.81 154.525C1220.62 156.395 1225.35 161.675 1228.6 165.58C1231.68 169.265 1236.19 174.985 1239.76 179.44L1247.13 171.52C1242.9 167.01 1237.18 160.905 1233.49 156.945C1230.14 153.315 1226.23 149.245 1222.33 145.56C1217.76 141.27 1214.13 141.875 1210.67 146C1206.71 150.73 1202.69 155.735 1200.27 158.155C1198.46 159.97 1197.14 161.235 1195.38 162.665ZM1253.73 152.6V163.105C1255.99 162.94 1260.11 162.775 1263.25 162.775H1292.45C1294.71 162.775 1297.79 163.05 1299.22 163.105V152.6C1297.62 152.71 1294.93 152.985 1292.45 152.985H1263.25C1260.55 152.985 1255.93 152.765 1253.73 152.6ZM1314.96 136.32L1308.63 143.085C1312.59 145.89 1319.52 151.94 1322.44 155.13L1329.26 148.145C1325.96 144.625 1318.75 138.905 1314.96 136.32ZM1306.82 172.84L1312.48 181.64C1319.41 180.54 1326.56 177.68 1332.17 174.38C1341.36 168.99 1349.17 161.345 1353.57 153.535L1348.4 144.13C1344.71 151.885 1337.29 160.41 1327.39 166.13C1322 169.265 1314.9 171.74 1306.82 172.84Z" fill="white"/>
<path d="M369.664 129.579L362.656 123.082C361.123 123.52 356.305 123.812 353.896 123.812H316.009C312.797 123.812 309.731 123.447 306.738 123.009V135.2C310.534 134.835 312.797 134.616 316.009 134.616H352.071C350.465 137.682 345.428 143.23 340.026 146.661L349.151 153.961C355.721 149.216 362.656 140.091 366.379 133.959C367.109 132.791 368.788 130.674 369.664 129.579ZM339.588 139.507H326.74C327.178 142.135 327.324 144.252 327.324 146.807C327.324 158.706 325.499 164.911 317.396 171.043C314.33 173.379 311.629 174.62 309.074 175.496L319.367 183.891C339.953 172.43 339.588 156.662 339.588 139.507ZM409.741 134.908L399.229 138.339C401.2 142.427 404.266 151.041 405.288 154.691L415.873 151.041C414.778 147.61 411.201 138.12 409.741 134.908ZM436.97 140.894L424.487 136.879C423.83 145.931 420.399 155.859 415.581 161.918C409.522 169.583 398.864 175.131 391.126 177.102L400.397 186.592C409.157 183.234 418.355 176.883 425.144 167.977C429.962 161.699 433.028 154.253 434.926 147.245C435.437 145.493 435.948 143.741 436.97 140.894ZM392.805 138.85L382.147 142.646C384.118 146.15 387.622 155.713 388.863 159.655L399.667 155.64C398.207 151.406 394.849 142.938 392.805 138.85ZM503.619 124.834C503.619 122.717 505.371 120.965 507.488 120.965C509.605 120.965 511.357 122.717 511.357 124.834C511.357 126.951 509.605 128.703 507.488 128.703C505.371 128.703 503.619 126.951 503.619 124.834ZM498.436 124.834C498.436 125.199 498.436 125.491 498.509 125.783C496.538 126.075 494.494 126.148 493.253 126.148H461.06C458.651 126.148 453.833 125.783 451.57 125.491V137.974C453.468 137.828 457.483 137.609 461.06 137.609H493.18C492.231 143.449 489.822 150.676 485.15 156.443C479.383 163.597 471.134 170.021 456.461 173.306L466.097 183.891C478.945 179.73 489.238 172.211 495.808 163.378C502.086 154.91 505.079 143.814 506.831 136.952C507.05 136.076 507.342 134.981 507.707 133.886C512.452 133.886 516.54 129.798 516.54 124.834C516.54 119.87 512.452 115.782 507.488 115.782C502.524 115.782 498.436 119.87 498.436 124.834ZM526.395 126.221C526.541 128.484 526.541 131.842 526.541 134.178V169.656C526.541 173.671 526.322 180.679 526.322 180.679H538.513V176.81H571.071C570.998 179 570.925 180.679 570.925 180.679H583.189C583.189 180.679 583.043 172.941 583.043 169.802V134.178C583.043 131.696 583.043 128.703 583.189 126.294C580.269 126.367 577.495 126.367 575.524 126.367H534.79C532.673 126.367 529.388 126.294 526.395 126.221ZM538.44 137.682H571.144V165.495H538.44V137.682ZM597.278 143.96V157.903C600.271 157.684 605.746 157.465 609.907 157.465H648.67C651.663 157.465 655.751 157.83 657.649 157.903V143.96C655.532 144.106 651.955 144.471 648.67 144.471H609.907C606.33 144.471 600.198 144.179 597.278 143.96ZM714.808 123.666L707.508 126.732C710.355 130.747 711.596 133.01 713.932 138.047L721.451 134.762C719.845 131.477 716.998 126.951 714.808 123.666ZM724.809 119.505L717.582 122.863C720.429 126.732 721.816 128.776 724.371 133.813L731.671 130.236C730.065 127.024 727.072 122.644 724.809 119.505ZM683.783 172.795C683.783 175.788 683.418 180.679 682.907 183.818H696.777C696.412 180.533 695.974 174.766 695.974 172.795V154.034C703.712 156.808 713.713 160.677 721.086 164.473L726.123 152.136C719.991 149.143 705.829 143.96 695.974 141.113V131.112C695.974 127.608 696.412 124.396 696.704 121.622H682.907C683.491 124.396 683.783 128.192 683.783 131.112V172.795ZM806.934 128.411C805.109 124.907 800.875 120.016 797.371 116.585L789.341 121.476C792.772 125.199 796.787 130.382 798.32 133.813L806.934 128.411ZM756.564 117.096C752.257 127.827 744.811 138.485 737.219 145.055C739.044 147.683 742.037 153.45 743.059 156.005C745.176 154.034 747.293 151.698 749.41 149.216V185.789H760.433V133.083C762.842 128.922 764.959 124.615 766.711 120.454L756.564 117.096ZM807.883 144.982L806.423 134.908L786.129 137.682C785.691 131.55 785.472 124.834 785.399 117.753H774.595C774.814 125.491 775.106 132.645 775.617 139.142L762.477 140.967L764.01 151.187L776.566 149.435C779.194 171.481 784.888 184.402 797.517 185.716C801.751 186.008 806.277 182.869 808.321 167.831C806.423 166.809 801.678 163.962 799.634 161.699C799.196 169.51 798.466 172.941 797.006 172.795C792.188 171.992 788.903 162.429 787.151 147.902L807.883 144.982ZM878.62 120.6H843.069V130.674H878.62V120.6ZM828.031 116.585C824.6 121.622 817.592 128.265 811.533 132.061C813.358 134.178 816.059 138.412 817.373 140.821C824.6 135.857 832.703 128.046 838.251 120.819L828.031 116.585ZM830.732 132.645C826.06 140.894 818.103 149.362 810.73 154.472C812.847 156.662 816.424 161.48 817.884 163.743C819.417 162.502 820.95 161.042 822.556 159.582V185.935H833.214V147.61C836.061 143.96 838.689 140.164 840.806 136.514L830.732 132.645ZM880.445 140.894H840.003V150.968H860.005V173.744C860.005 174.766 859.567 175.058 858.253 175.058C856.939 175.058 852.121 175.058 848.544 174.839C849.931 177.905 851.318 182.577 851.683 185.716C857.888 185.716 862.779 185.57 866.283 183.964C869.933 182.358 870.882 179.438 870.882 174.036V150.968H880.445V140.894ZM933.954 140.748H930.158V133.156H933.954V140.748ZM933.954 157.684H930.158V150.165H933.954V157.684ZM905.411 150.165H908.988V157.684H905.411V150.165ZM921.398 150.165V157.684H917.748V150.165H921.398ZM917.748 140.748V133.156H921.398V140.748H917.748ZM905.411 133.156H908.988V140.748H905.411V133.156ZM896.067 140.748H886.358V150.165H896.067V157.684H887.599V167.101H951.693V157.684H943.663V150.165H952.788V140.748H943.663V133.156H950.16V123.885H907.455C908.331 122.498 909.061 121.111 909.791 119.651L899.352 116.585C896.286 123.082 890.519 129.506 884.387 133.302C886.869 134.908 891.103 138.266 893.074 140.237C894.096 139.507 895.045 138.631 896.067 137.682V140.748ZM895.775 186.008C899.133 181.993 902.126 175.934 903.659 170.24L893.293 167.758C891.687 173.087 888.548 178.854 885.482 181.92L895.775 186.008ZM906.652 170.678C907.455 175.35 907.966 181.482 907.966 185.132L918.405 183.599C918.332 179.949 917.456 174.036 916.507 169.51L906.652 170.678ZM920.96 170.97C922.493 175.569 924.026 181.555 924.391 185.205L935.049 183.161C934.465 179.438 932.713 173.671 930.961 169.291L920.96 170.97ZM935.268 170.605C938.334 175.423 942.057 181.92 943.517 185.935L954.467 182.358C952.642 178.197 948.627 171.992 945.488 167.466L935.268 170.605ZM1008.93 128.63C1006.52 125.929 1001.26 122.279 997.245 119.87L992.135 127.024C996.15 129.725 1001.26 133.74 1003.45 136.587L1008.93 128.63ZM989.069 145.42C993.23 148.048 998.632 152.063 1001.04 154.837L1006.37 146.369C1003.74 143.668 998.194 140.091 994.033 137.828L989.069 145.42ZM968.702 138.12C968.41 133.375 967.096 126.294 965.271 120.819L957.971 122.717C959.577 128.192 960.818 135.492 960.891 140.237L968.702 138.12ZM1027.83 164.911L1026.3 155.056L1019.44 156.297V116.512H1009.51V158.049L988.996 161.699C987.098 159.436 981.039 152.793 978.849 150.968V150.676H988.996V140.821H978.849V138.047L985.346 139.799C987.098 135.346 989.215 128.338 991.113 122.206L982.28 120.381C981.623 125.491 980.163 132.645 978.849 137.463V117.023H969.067V140.821H958.409V150.676H965.636C963.519 156.589 960.307 163.451 956.949 167.539C958.482 170.532 960.745 175.35 961.621 178.635C964.395 174.401 966.95 168.415 969.067 162.137V185.716H978.849V162.648C980.455 165.422 981.988 168.196 982.937 170.313L988.923 162.575L990.383 171.7L1009.51 168.269V185.862H1019.44V166.444L1027.83 164.911Z" fill="#FFD600"/>
<path d="M147.414 242.306C147.414 240.982 148.861 240.059 151.046 240.059C152.001 240.059 152.955 240.213 153.909 240.459C153.94 240.982 153.94 241.413 153.94 241.752C153.94 243.383 153.355 244.615 150.923 244.615C148.768 244.615 147.414 243.845 147.414 242.306ZM146.614 223.929V226.083C148.861 226.207 151.292 226.207 153.57 226.114V231.224C151.169 231.286 148.645 231.255 146.152 231.07V233.317C148.614 233.441 151.169 233.441 153.57 233.379C153.632 235.011 153.724 236.857 153.817 238.427C152.955 238.304 152.062 238.212 151.108 238.212C147.044 238.212 145.228 240.274 145.228 242.429C145.228 245.323 147.752 246.739 151.139 246.739C154.463 246.739 156.187 245.292 156.187 242.799C156.187 242.368 156.187 241.844 156.156 241.321C158.003 242.214 159.758 243.507 161.297 245.107L162.621 242.952C161.081 241.598 158.927 239.936 156.033 238.982C155.941 237.227 155.818 235.226 155.787 233.287C157.942 233.194 159.912 233.04 161.543 232.856V230.609C159.819 230.824 157.88 231.009 155.787 231.101V226.022C157.695 225.93 159.419 225.806 160.835 225.653V223.498C157.234 223.99 151.57 224.298 146.614 223.929ZM141.35 222.667L138.61 222.42C138.61 223.067 138.518 223.898 138.425 224.606C138.025 227.13 137.04 232.886 137.04 237.412C137.04 241.567 137.563 244.953 138.21 247.139L140.395 246.985C140.365 246.646 140.334 246.215 140.303 245.908C140.303 245.538 140.365 244.953 140.457 244.522C140.765 243.014 141.873 239.843 142.643 237.719L141.38 236.704C140.857 237.966 140.088 239.905 139.595 241.321C139.41 239.813 139.318 238.458 139.318 236.981C139.318 233.533 140.18 227.561 140.796 224.698C140.919 224.144 141.165 223.159 141.35 222.667ZM173.764 222.051L171.332 223.067C172.748 226.422 174.38 230.024 175.796 232.548C172.502 234.857 170.47 237.35 170.47 240.521C170.47 245.138 174.657 246.862 180.444 246.862C184.292 246.862 187.832 246.493 190.171 246.092V243.353C187.77 243.968 183.676 244.399 180.321 244.399C175.457 244.399 173.025 242.799 173.025 240.244C173.025 237.904 174.749 235.872 177.612 234.025C180.629 232.025 184.877 229.993 186.97 228.916C187.863 228.454 188.632 228.054 189.34 227.623L187.986 225.437C187.339 225.96 186.693 226.361 185.8 226.884C184.107 227.807 180.782 229.439 177.889 231.193C176.534 228.762 174.995 225.437 173.764 222.051ZM211.904 223.159L209.195 222.051C208.826 222.944 208.426 223.713 208.056 224.421C206.394 227.407 199.652 240.028 197.405 246.246L200.053 247.17C200.453 245.631 201.776 241.998 202.7 240.151C203.9 237.75 206.209 235.226 208.703 235.226C210.088 235.226 210.857 236.026 210.95 237.381C211.042 239.074 210.98 241.444 211.073 243.23C211.196 245.046 212.243 247.139 215.536 247.139C220 247.139 222.586 243.691 224.217 238.735L222.185 237.073C221.385 240.336 219.353 244.584 215.937 244.584C214.582 244.584 213.535 243.938 213.443 242.398C213.351 240.89 213.382 238.52 213.32 236.704C213.228 234.272 211.75 232.979 209.718 232.979C208.241 232.979 206.609 233.533 205.132 234.887C206.732 231.901 209.564 226.791 210.919 224.667C211.288 224.083 211.627 223.529 211.904 223.159ZM233.567 222.451L231.135 223.467C232.582 226.791 234.213 230.393 235.629 232.948C232.305 235.226 230.304 237.719 230.304 240.921C230.304 245.538 234.459 247.262 240.247 247.262C244.094 247.262 247.665 246.923 249.974 246.493L250.005 243.753C247.604 244.369 243.51 244.799 240.154 244.799C235.291 244.799 232.859 243.199 232.859 240.644C232.859 238.304 234.583 236.273 237.445 234.426C240.431 232.425 243.879 230.824 245.972 229.716C246.865 229.254 247.634 228.854 248.312 228.454L247.08 226.207C246.434 226.73 245.757 227.13 244.895 227.653C243.202 228.608 240.4 229.962 237.692 231.594C236.368 229.162 234.798 225.837 233.567 222.451ZM248.835 222.143L247.173 222.851C248.035 224.021 249.081 225.868 249.697 227.13L251.359 226.391C250.713 225.129 249.605 223.251 248.835 222.143ZM252.221 220.912L250.59 221.589C251.482 222.759 252.498 224.514 253.175 225.837L254.807 225.098C254.222 223.959 253.052 222.02 252.221 220.912ZM263.98 220.266C262.41 224.852 259.794 229.408 256.992 232.394C257.362 232.886 258.039 234.087 258.255 234.61C259.24 233.533 260.225 232.302 261.117 230.886V248.309H263.365V227.13C264.411 225.129 265.335 223.005 266.104 220.943L263.98 220.266ZM274.539 231.778V238.273H269.244V231.778H274.539ZM276.663 240.305V229.747H267.058V242.429H269.244V240.305H276.663ZM285.22 223.221H266.166V225.437H280.726V245.2C280.726 245.815 280.511 245.969 279.864 246C279.187 246.031 276.94 246.062 274.477 245.969C274.816 246.616 275.216 247.662 275.308 248.309C278.294 248.309 280.326 248.247 281.465 247.878C282.542 247.508 282.973 246.831 282.973 245.2V225.437H285.22V223.221ZM300.119 221.805L297.349 221.62C297.41 222.205 297.41 222.759 297.318 223.806C297.256 224.698 297.133 225.806 296.979 227.038C294.701 226.884 292.177 226.514 290.238 225.899L290.115 228.146C292.054 228.638 294.486 229.039 296.733 229.223C296.487 231.04 296.241 232.979 296.056 234.795C293.87 234.61 291.531 234.241 289.499 233.533L289.376 235.903C291.254 236.488 293.501 236.827 295.81 237.011C295.656 238.458 295.563 239.69 295.563 240.551C295.563 245.6 298.919 247.416 303.105 247.416C309.2 247.416 313.264 244.646 313.264 240.059C313.264 237.412 312.248 235.288 310.124 232.948L307.415 233.502C309.662 235.411 310.77 237.719 310.77 239.782C310.77 242.952 307.784 245.015 303.105 245.015C299.596 245.015 297.934 243.168 297.934 240.182C297.934 239.443 297.995 238.366 298.118 237.135C298.488 237.135 298.857 237.135 299.227 237.135C301.32 237.135 303.228 237.042 305.26 236.827L305.322 234.487C303.167 234.795 301.012 234.887 298.919 234.887C298.734 234.887 298.549 234.887 298.334 234.887C298.549 233.071 298.796 231.132 299.011 229.316C299.073 229.316 299.165 229.316 299.227 229.316C301.72 229.316 303.505 229.223 305.475 229.039L305.537 226.73C303.752 227.007 301.658 227.13 299.288 227.13C299.473 225.837 299.627 224.76 299.719 223.959C299.811 223.282 299.904 222.636 300.119 221.805ZM327.731 222.02L324.622 221.989C324.807 222.882 324.869 223.99 324.869 225.129C324.869 228.361 324.561 236.149 324.561 240.705C324.561 245.723 327.608 247.57 332.041 247.57C338.813 247.57 342.784 243.691 344.908 240.767L343.154 238.674C340.937 241.875 337.767 245.046 332.133 245.046C329.209 245.046 327.085 243.845 327.085 240.459C327.085 235.872 327.301 228.608 327.454 225.129C327.485 224.113 327.578 223.036 327.731 222.02ZM361.931 221.558L359.222 221.312C359.161 222.974 358.73 224.914 358.268 226.638C357.068 226.73 355.898 226.791 354.79 226.791C353.497 226.791 352.173 226.73 351.034 226.576L351.188 228.885C352.358 228.946 353.651 228.977 354.79 228.977C355.682 228.977 356.606 228.946 357.529 228.885C356.113 232.486 353.497 237.412 350.942 240.398L353.312 241.629C355.775 238.304 358.514 232.979 360.023 228.638C362.054 228.361 363.994 227.961 365.625 227.499L365.564 225.191C363.994 225.714 362.331 226.083 360.731 226.33C361.223 224.544 361.654 222.667 361.931 221.558ZM360.238 242.922C360.238 241.506 361.777 240.459 364.024 240.459C365.133 240.459 366.21 240.613 367.195 240.921C367.226 241.444 367.226 241.906 367.226 242.306C367.226 243.999 366.364 245.354 363.809 245.354C361.408 245.354 360.238 244.369 360.238 242.922ZM369.196 231.07H366.795C366.857 233.256 367.01 236.303 367.134 238.828C366.179 238.612 365.163 238.52 364.117 238.52C360.638 238.52 357.96 240.305 357.96 243.137C357.96 246.185 360.731 247.57 364.117 247.57C367.934 247.57 369.504 245.569 369.504 243.106C369.504 242.737 369.504 242.306 369.473 241.814C371.474 242.799 373.136 244.184 374.46 245.354L375.784 243.26C374.183 241.906 372.028 240.398 369.381 239.443C369.319 237.535 369.196 235.534 369.165 234.395C369.134 233.287 369.134 232.332 369.196 231.07ZM375.353 231.901L376.738 229.87C375.291 228.762 371.782 226.761 369.565 225.776L368.303 227.653C370.366 228.577 373.69 230.485 375.353 231.901ZM400.502 223.282L398.224 221.251C397.855 221.835 397.085 222.697 396.47 223.313C394.376 225.437 389.697 229.131 387.389 231.07C384.618 233.41 384.249 234.733 387.173 237.165C390.036 239.536 394.715 243.537 396.87 245.754C397.639 246.493 398.347 247.262 398.994 248.001L401.179 245.969C397.916 242.706 392.468 238.304 389.667 236.026C387.697 234.364 387.727 233.872 389.574 232.302C391.852 230.393 396.285 226.884 398.378 225.037C398.902 224.606 399.856 223.806 400.502 223.282ZM411.299 225.56L411.576 228.238C414.9 227.53 422.75 226.791 426.044 226.422C423.212 228.115 420.287 232.025 420.287 236.827C420.287 243.691 426.782 246.739 432.477 246.954L433.37 244.399C428.352 244.215 422.75 242.306 422.75 236.273C422.75 232.64 425.428 227.961 429.799 226.545C431.369 226.083 434.078 226.053 435.833 226.053V223.59C433.77 223.682 430.876 223.836 427.521 224.144C421.857 224.606 416.039 225.191 414.038 225.406C413.453 225.468 412.468 225.529 411.299 225.56ZM451.569 221.805L448.798 221.62C448.86 222.205 448.86 222.759 448.767 223.806C448.706 224.698 448.583 225.806 448.429 227.038C446.151 226.884 443.627 226.514 441.687 225.899L441.564 228.146C443.503 228.638 445.935 229.039 448.182 229.223C447.936 231.04 447.69 232.979 447.505 234.795C445.32 234.61 442.98 234.241 440.948 233.533L440.825 235.903C442.703 236.488 444.95 236.827 447.259 237.011C447.105 238.458 447.013 239.69 447.013 240.551C447.013 245.6 450.368 247.416 454.555 247.416C460.65 247.416 464.713 244.646 464.713 240.059C464.713 237.412 463.697 235.288 461.573 232.948L458.864 233.502C461.111 235.411 462.219 237.719 462.219 239.782C462.219 242.952 459.234 245.015 454.555 245.015C451.045 245.015 449.383 243.168 449.383 240.182C449.383 239.443 449.445 238.366 449.568 237.135C449.937 237.135 450.306 237.135 450.676 237.135C452.769 237.135 454.678 237.042 456.709 236.827L456.771 234.487C454.616 234.795 452.461 234.887 450.368 234.887C450.183 234.887 449.999 234.887 449.783 234.887C449.999 233.071 450.245 231.132 450.46 229.316C450.522 229.316 450.614 229.316 450.676 229.316C453.169 229.316 454.955 229.223 456.925 229.039L456.986 226.73C455.201 227.007 453.108 227.13 450.737 227.13C450.922 225.837 451.076 224.76 451.168 223.959C451.261 223.282 451.353 222.636 451.569 221.805ZM476.186 247.724L478.28 245.938C476.371 243.691 473.601 240.89 471.384 239.105L469.383 240.859C471.569 242.645 474.216 245.292 476.186 247.724ZM513.095 221.62L510.509 221.558C510.54 221.928 510.479 222.482 510.448 223.036C510.386 223.713 510.294 224.514 510.202 225.406C509.494 225.437 508.816 225.437 508.108 225.437C506.785 225.437 504.107 225.222 503.029 225.037L503.091 227.346C504.353 227.438 506.754 227.561 508.078 227.561C508.693 227.561 509.309 227.561 509.955 227.53C509.832 228.977 509.678 230.516 509.617 232.055C505.369 234.025 501.921 238.058 501.921 242.029C501.921 244.646 503.522 245.908 505.553 245.908C507.246 245.908 509.093 245.23 510.786 244.215C510.94 244.83 511.094 245.415 511.279 245.938L513.495 245.261C513.249 244.492 513.003 243.661 512.757 242.768C515.373 240.551 517.866 237.135 519.621 232.763C522.484 233.595 524.054 235.688 524.054 238.027C524.054 242.029 520.606 244.892 515.034 245.477L516.358 247.539C523.5 246.4 526.424 242.583 526.424 238.15C526.424 234.764 524.146 231.932 520.298 230.916C520.298 230.855 520.329 230.824 520.329 230.793C520.483 230.301 520.76 229.47 520.945 229.039L518.513 228.423C518.482 228.946 518.328 229.747 518.174 230.208C518.144 230.332 518.113 230.424 518.082 230.516C517.713 230.485 517.343 230.485 516.943 230.485C515.373 230.485 513.495 230.762 511.771 231.255C511.864 229.962 511.956 228.669 512.11 227.469C515.866 227.284 519.96 226.853 523.192 226.299L523.161 224.021C520.021 224.76 516.266 225.16 512.356 225.345C512.479 224.452 512.603 223.652 512.726 223.005C512.818 222.574 512.941 222.02 513.095 221.62ZM511.679 234.672C511.679 234.241 511.679 233.841 511.71 233.41C513.126 232.886 514.911 232.425 516.912 232.425C517.097 232.425 517.282 232.425 517.436 232.425C516.143 235.872 514.265 238.366 512.202 240.305C511.895 238.52 511.679 236.642 511.679 234.672ZM504.26 241.629C504.26 239.105 506.538 236.057 509.524 234.364C509.524 234.549 509.524 234.733 509.524 234.918C509.524 237.227 509.832 239.72 510.263 241.906C508.693 243.014 507.216 243.537 506.015 243.537C504.845 243.537 504.26 242.891 504.26 241.629ZM543.232 221.558L540.523 221.312C540.461 222.974 540.03 224.914 539.568 226.638C538.368 226.73 537.198 226.791 536.09 226.791C534.797 226.791 533.473 226.73 532.334 226.576L532.488 228.885C533.658 228.946 534.951 228.977 536.09 228.977C536.983 228.977 537.906 228.946 538.83 228.885C537.414 232.486 534.797 237.412 532.242 240.398L534.612 241.629C537.075 238.304 539.815 232.979 541.323 228.638C543.355 228.361 545.294 227.961 546.926 227.499L546.864 225.191C545.294 225.714 543.632 226.083 542.031 226.33C542.524 224.544 542.955 222.667 543.232 221.558ZM541.538 242.922C541.538 241.506 543.078 240.459 545.325 240.459C546.433 240.459 547.51 240.613 548.495 240.921C548.526 241.444 548.526 241.906 548.526 242.306C548.526 243.999 547.664 245.354 545.109 245.354C542.708 245.354 541.538 244.369 541.538 242.922ZM550.496 231.07H548.095C548.157 233.256 548.311 236.303 548.434 238.828C547.48 238.612 546.464 238.52 545.417 238.52C541.939 238.52 539.261 240.305 539.261 243.137C539.261 246.185 542.031 247.57 545.417 247.57C549.234 247.57 550.804 245.569 550.804 243.106C550.804 242.737 550.804 242.306 550.773 241.814C552.774 242.799 554.437 244.184 555.76 245.354L557.084 243.26C555.483 241.906 553.328 240.398 550.681 239.443C550.619 237.535 550.496 235.534 550.466 234.395C550.435 233.287 550.435 232.332 550.496 231.07ZM556.653 231.901L558.038 229.87C556.591 228.762 553.082 226.761 550.866 225.776L549.604 227.653C551.666 228.577 554.991 230.485 556.653 231.901ZM577.308 238.643L574.999 238.427C574.753 239.72 574.538 240.859 574.538 242.06C574.538 245.107 577.185 246.585 582.049 246.585C584.296 246.585 586.328 246.4 587.99 246.154L588.082 243.661C586.204 244.061 584.08 244.276 582.08 244.276C577.678 244.276 576.877 242.86 576.877 241.413C576.877 240.613 577.031 239.659 577.308 238.643ZM573.768 221.774L570.813 221.528C570.875 222.174 570.844 223.221 570.721 224.083C570.628 224.698 570.474 225.683 570.259 226.761C569.058 226.853 567.95 226.915 566.934 226.915C565.826 226.915 564.718 226.884 563.24 226.699L563.333 229.1C564.441 229.162 565.549 229.223 566.904 229.223C567.766 229.223 568.72 229.193 569.736 229.131C569.489 230.239 569.212 231.409 568.935 232.425C567.796 236.765 565.611 243.014 563.764 246.185L566.473 247.108C568.073 243.722 570.167 237.381 571.275 233.01C571.644 231.655 571.983 230.239 572.26 228.885C574.415 228.638 576.662 228.3 578.663 227.838V225.406C576.785 225.899 574.753 226.268 572.752 226.514C572.937 225.683 573.091 224.883 573.214 224.237C573.337 223.621 573.583 222.451 573.768 221.774ZM576.662 231.163V233.441C578.57 233.225 580.448 233.133 582.387 233.133C584.173 233.133 585.989 233.287 587.559 233.502L587.62 231.163C585.958 230.978 584.111 230.886 582.295 230.886C580.325 230.886 578.293 231.009 576.662 231.163ZM618.865 235.226C618.865 228.977 614.278 223.898 607.075 223.898C599.564 223.898 593.623 229.747 593.623 236.427C593.623 241.506 596.363 244.646 599.102 244.646C601.965 244.646 604.397 241.413 606.275 235.072C607.137 232.209 607.722 229.069 608.122 226.207C613.355 226.638 616.341 230.485 616.341 235.134C616.341 240.459 612.462 243.383 608.522 244.276C607.814 244.43 606.86 244.584 605.875 244.676L607.321 246.954C614.617 246 618.865 241.69 618.865 235.226ZM596.024 236.211C596.024 232.025 599.657 226.976 605.567 226.237C605.228 229.069 604.613 231.994 603.843 234.549C602.273 239.751 600.642 241.814 599.195 241.814C597.81 241.814 596.024 240.09 596.024 236.211ZM623.698 229.916C623.842 228.91 624.119 228.023 624.529 227.253C624.94 226.473 625.458 225.822 626.084 225.299C626.72 224.775 627.443 224.38 628.254 224.113C629.075 223.836 629.957 223.698 630.901 223.698C631.835 223.698 632.697 223.831 633.487 224.098C634.277 224.365 634.954 224.744 635.519 225.237C636.093 225.729 636.54 226.325 636.858 227.022C637.176 227.72 637.335 228.495 637.335 229.346C637.335 230.044 637.242 230.67 637.058 231.224C636.883 231.768 636.627 232.245 636.288 232.656C635.96 233.066 635.56 233.415 635.088 233.702C634.616 233.99 634.087 234.226 633.502 234.41C634.939 234.78 636.016 235.416 636.735 236.319C637.463 237.211 637.827 238.33 637.827 239.674C637.827 240.69 637.632 241.603 637.242 242.414C636.863 243.224 636.339 243.917 635.673 244.492C635.006 245.056 634.226 245.492 633.333 245.8C632.451 246.097 631.501 246.246 630.486 246.246C629.316 246.246 628.315 246.103 627.484 245.815C626.653 245.518 625.95 245.112 625.376 244.599C624.801 244.086 624.329 243.481 623.96 242.783C623.59 242.075 623.277 241.311 623.021 240.49L624.206 239.997C624.514 239.864 624.811 239.828 625.099 239.89C625.396 239.951 625.612 240.12 625.745 240.398C625.878 240.685 626.043 241.029 626.238 241.429C626.443 241.829 626.72 242.214 627.069 242.583C627.418 242.952 627.859 243.265 628.392 243.522C628.936 243.779 629.624 243.907 630.455 243.907C631.224 243.907 631.896 243.784 632.471 243.537C633.056 243.281 633.538 242.952 633.918 242.552C634.308 242.152 634.6 241.706 634.795 241.213C634.99 240.721 635.088 240.233 635.088 239.751C635.088 239.156 635.011 238.612 634.857 238.12C634.703 237.627 634.416 237.201 633.995 236.842C633.574 236.483 632.994 236.201 632.256 235.996C631.527 235.79 630.588 235.688 629.439 235.688V233.702C630.383 233.692 631.183 233.589 631.84 233.394C632.507 233.199 633.046 232.933 633.456 232.594C633.877 232.255 634.18 231.85 634.364 231.378C634.559 230.906 634.657 230.383 634.657 229.808C634.657 229.172 634.554 228.618 634.349 228.146C634.154 227.674 633.882 227.284 633.533 226.976C633.184 226.668 632.769 226.437 632.286 226.284C631.814 226.13 631.301 226.053 630.747 226.053C630.193 226.053 629.675 226.135 629.193 226.299C628.721 226.463 628.3 226.694 627.931 226.992C627.571 227.279 627.269 227.623 627.023 228.023C626.776 228.423 626.602 228.864 626.499 229.346C626.366 229.706 626.197 229.947 625.991 230.07C625.796 230.183 625.509 230.214 625.129 230.162L623.698 229.916ZM661.486 234.98C661.486 236.632 661.225 238.135 660.701 239.489C660.178 240.844 659.439 242.003 658.485 242.968C657.531 243.932 656.382 244.681 655.037 245.215C653.703 245.738 652.226 246 650.605 246H642.37V223.944H650.605C652.226 223.944 653.703 224.211 655.037 224.744C656.382 225.268 657.531 226.017 658.485 226.992C659.439 227.956 660.178 229.116 660.701 230.47C661.225 231.824 661.486 233.328 661.486 234.98ZM658.423 234.98C658.423 233.625 658.239 232.414 657.869 231.347C657.5 230.28 656.977 229.377 656.299 228.638C655.622 227.9 654.801 227.335 653.837 226.945C652.872 226.555 651.795 226.361 650.605 226.361H645.356V243.584H650.605C651.795 243.584 652.872 243.389 653.837 242.999C654.801 242.609 655.622 242.05 656.299 241.321C656.977 240.582 657.5 239.679 657.869 238.612C658.239 237.545 658.423 236.334 658.423 234.98ZM686.212 223.251C686.212 222.174 687.074 221.281 688.152 221.281C689.26 221.281 690.153 222.174 690.153 223.251C690.153 224.36 689.26 225.222 688.152 225.222C687.074 225.222 686.212 224.36 686.212 223.251ZM684.796 223.251C684.796 225.129 686.305 226.607 688.152 226.607C690.03 226.607 691.538 225.129 691.538 223.251C691.538 221.404 690.03 219.865 688.152 219.865C686.305 219.865 684.796 221.404 684.796 223.251ZM679.656 222.266H676.762C676.885 222.728 676.978 223.775 676.978 224.452V227.623H668.42C667.435 227.623 666.665 227.561 665.803 227.469V230.054C666.635 229.993 667.496 229.962 668.42 229.962H676.978V243.845C676.978 244.646 676.608 245.015 675.777 245.015C674.977 245.015 673.561 244.892 672.237 244.646L672.452 247.108C673.684 247.231 675.531 247.324 676.824 247.324C678.671 247.324 679.471 246.493 679.471 244.861V229.962H687.628C688.367 229.962 689.291 229.962 690.122 230.024V227.469C689.352 227.561 688.336 227.623 687.598 227.623H679.471V224.483C679.471 223.806 679.563 222.697 679.656 222.266ZM685.751 233.687L683.657 234.795C685.289 236.734 687.598 240.582 688.798 242.983L691.076 241.721C689.845 239.505 687.382 235.657 685.751 233.687ZM672.883 234.703L670.729 233.656C669.528 236.149 666.881 239.813 664.849 241.721L666.973 243.137C668.697 241.259 671.591 237.35 672.883 234.703ZM696.894 232.671V235.688C697.848 235.595 699.48 235.534 701.173 235.534H718.073C719.458 235.534 720.751 235.657 721.367 235.688V232.671C720.689 232.733 719.581 232.825 718.042 232.825H701.173C699.449 232.825 697.818 232.733 696.894 232.671ZM734.911 243.291C734.911 244.43 734.849 245.938 734.695 246.923H737.681C737.558 245.908 737.497 244.245 737.497 243.291C737.497 242.398 737.497 237.75 737.466 233.133C740.883 234.21 746.208 236.273 749.564 238.089L750.61 235.472C747.378 233.841 741.529 231.624 737.466 230.393C737.466 228.454 737.466 226.668 737.466 225.375C737.466 224.452 737.589 223.128 737.681 222.174H734.665C734.849 223.128 734.911 224.514 734.911 225.375V243.291ZM781.824 225.529L779.946 224.329C779.361 224.483 778.777 224.483 778.315 224.483H762.862C761.846 224.483 760.645 224.39 759.784 224.298V227.007C760.584 226.976 761.63 226.915 762.862 226.915H778.592C778.161 229.87 776.745 234.149 774.559 236.95C771.974 240.244 768.526 242.86 762.554 244.369L764.647 246.677C770.311 244.892 773.974 242.029 776.776 238.427C779.208 235.257 780.716 230.301 781.362 227.069C781.485 226.484 781.609 225.96 781.824 225.529ZM806.143 227.161H803.526C803.649 227.869 803.741 228.638 803.741 229.254C803.772 229.839 803.803 230.701 803.834 231.748H794.568C793.829 231.748 792.998 231.717 792.29 231.624V234.087C793.029 234.025 793.799 233.964 794.63 233.964H802.849C800.756 237.104 796.077 241.167 791.459 243.383L793.183 245.292C797.369 243.076 801.802 239.166 803.895 236.211C803.957 239.474 803.988 242.922 803.988 244.861C803.988 245.415 803.711 245.754 803.157 245.754C802.233 245.754 800.632 245.661 799.401 245.477L799.524 247.724C800.756 247.816 802.756 247.909 803.988 247.909C805.342 247.909 806.327 247.108 806.296 245.785C806.266 242.891 806.173 237.843 806.112 233.964H810.575C811.16 233.964 812.053 234.025 812.576 234.056V231.624C812.145 231.686 811.129 231.748 810.514 231.748H806.081C806.05 230.701 806.019 229.839 806.019 229.254C806.019 228.546 806.05 227.838 806.143 227.161ZM840.773 222.636H837.88C837.972 223.405 838.034 224.267 838.034 225.314V230.178C838.034 235.996 837.664 238.489 835.479 241.044C833.57 243.199 830.954 244.43 828.121 245.138L830.122 247.262C832.37 246.493 835.448 245.169 837.449 242.768C839.665 240.12 840.681 237.689 840.681 230.301V225.314C840.681 224.267 840.712 223.405 840.773 222.636ZM826.49 222.882H823.689C823.75 223.467 823.812 224.544 823.812 225.098V235.349C823.812 236.273 823.72 237.258 823.658 237.719H826.49C826.428 237.165 826.367 236.149 826.367 235.38V225.098C826.367 224.36 826.428 223.467 826.49 222.882ZM867.985 221.897H865.123C865.246 222.543 865.307 223.313 865.4 224.483C865.43 225.191 865.461 226.237 865.492 227.469H854.287C853.333 227.469 852.348 227.376 851.455 227.284V229.901C852.409 229.839 853.302 229.808 854.349 229.808H864.476C862.044 233.502 856.565 238.612 850.316 241.66L852.101 243.661C857.612 240.736 862.999 235.749 865.553 232.117C865.615 236.242 865.646 240.828 865.646 243.291C865.646 244.122 865.4 244.522 864.507 244.522C863.368 244.522 861.644 244.399 860.166 244.153L860.382 246.677C861.89 246.8 863.707 246.862 865.307 246.862C867.154 246.862 868.108 246 868.108 244.399C868.078 240.551 867.985 234.426 867.893 229.808H872.787C873.526 229.808 874.604 229.839 875.312 229.87V227.284C874.696 227.346 873.495 227.469 872.695 227.469H867.862C867.831 226.237 867.801 225.191 867.801 224.483C867.801 223.621 867.862 222.759 867.985 221.897ZM900.123 227.53C900.123 226.268 901.138 225.283 902.401 225.283C903.632 225.283 904.648 226.268 904.648 227.53C904.648 228.762 903.632 229.777 902.401 229.777C901.138 229.777 900.123 228.762 900.123 227.53ZM898.645 227.53C898.645 229.593 900.338 231.255 902.401 231.255C904.463 231.255 906.125 229.593 906.125 227.53C906.125 225.468 904.463 223.775 902.401 223.775C900.338 223.775 898.645 225.468 898.645 227.53ZM880.083 237.904L882.392 240.244C882.853 239.597 883.531 238.643 884.146 237.873C885.562 236.149 888.117 232.794 889.595 230.978C890.641 229.716 891.226 229.593 892.427 230.762C893.72 232.025 896.583 235.072 898.368 237.104C900.338 239.351 903.047 242.491 905.233 245.138L907.357 242.891C904.986 240.367 901.908 237.011 899.846 234.826C898.029 232.886 895.413 230.147 893.535 228.361C891.442 226.391 889.995 226.73 888.333 228.669C886.393 230.947 883.715 234.364 882.269 235.842C881.437 236.673 880.883 237.227 880.083 237.904ZM912.374 232.671V235.688C913.328 235.595 914.96 235.534 916.653 235.534H933.553C934.938 235.534 936.231 235.657 936.847 235.688V232.671C936.169 232.733 935.061 232.825 933.522 232.825H916.653C914.929 232.825 913.298 232.733 912.374 232.671ZM961.457 223.036L959.763 223.744C960.779 225.16 961.795 227.007 962.565 228.608L964.319 227.807C963.611 226.361 962.226 224.144 961.457 223.036ZM965.489 221.558L963.765 222.297C964.812 223.682 965.859 225.437 966.69 227.069L968.444 226.268C967.675 224.852 966.32 222.636 965.489 221.558ZM948.312 222.574L946.927 224.637C948.712 225.683 952.068 227.9 953.545 229.039L954.992 226.915C953.668 225.96 950.128 223.59 948.312 222.574ZM943.695 244.584L945.111 247.077C947.974 246.493 952.222 245.077 955.3 243.26C960.225 240.367 964.473 236.396 967.151 232.271L965.674 229.716C963.18 234.056 959.117 238.089 954.007 241.013C950.898 242.768 947.05 243.999 943.695 244.584ZM943.664 229.5L942.279 231.594C944.157 232.548 947.481 234.703 949.02 235.811L950.406 233.656C949.082 232.702 945.48 230.485 943.664 229.5ZM983.251 222.082L980.419 221.805C980.419 223.898 980.08 226.299 979.618 228.515C977.741 228.669 975.955 228.823 974.939 228.854C973.954 228.885 973.154 228.885 972.169 228.854L972.446 231.501C973.216 231.378 974.508 231.224 975.216 231.132C976.017 231.04 977.494 230.886 979.126 230.732C978.079 234.857 975.771 241.875 972.631 246.062L975.124 247.077C978.387 241.875 980.48 234.887 981.619 230.485C982.943 230.362 984.174 230.27 984.913 230.27C986.883 230.27 988.176 230.793 988.176 233.595C988.176 236.919 987.714 240.952 986.729 243.014C986.114 244.369 985.159 244.615 984.02 244.615C983.158 244.615 981.558 244.369 980.265 243.968L980.665 246.554C981.65 246.77 983.097 246.985 984.297 246.985C986.268 246.985 987.807 246.493 988.792 244.43C990.054 241.875 990.577 236.981 990.577 233.317C990.577 229.131 988.33 228.084 985.56 228.084C984.821 228.084 983.559 228.177 982.112 228.3C982.45 226.638 982.727 224.821 982.912 223.929C983.005 223.313 983.128 222.667 983.251 222.082ZM993.84 225.653L991.593 226.668C993.779 229.193 996.18 234.549 997.103 237.719L999.473 236.58C998.458 233.718 995.749 228.146 993.84 225.653ZM994.209 221.189L992.547 221.866C993.378 223.036 994.425 224.914 995.041 226.145L996.734 225.406C996.087 224.175 994.979 222.266 994.209 221.189ZM997.596 219.927L995.964 220.635C996.826 221.805 997.842 223.559 998.519 224.883L1000.18 224.144C999.596 223.005 998.396 221.066 997.596 219.927ZM1026.04 235.657V244.184H1017.39V233.687H1027.15V223.159H1024.78V231.47H1017.39V220.419H1015.05V231.47H1008V223.159H1005.72V233.687H1015.05V244.184H1006.83V235.657H1004.55V248.339H1006.83V246.431H1026.04V248.278H1028.38V235.657H1026.04ZM1060.76 235.996V233.81H1048.33V226.145H1059.47V223.959H1048.33V220.296H1045.96V223.959H1035.06V226.145H1045.96V233.81H1033.61V235.996H1044.42C1041.62 239.751 1037.09 243.353 1032.97 245.138C1033.46 245.6 1034.2 246.462 1034.57 247.016C1038.6 245.015 1042.97 241.321 1045.96 237.258V248.339H1048.33V237.196C1051.31 241.259 1055.71 245.107 1059.81 247.139C1060.18 246.523 1060.92 245.661 1061.41 245.2C1057.25 243.414 1052.7 239.751 1049.9 235.996H1060.76ZM1037.55 227.623C1038.75 229.408 1039.92 231.901 1040.32 233.441L1042.48 232.609C1042.05 231.009 1040.78 228.638 1039.55 226.853L1037.55 227.623ZM1053.81 233.502C1054.91 231.994 1056.27 229.562 1057.35 227.469L1055.01 226.73C1054.27 228.577 1052.94 231.193 1051.9 232.856L1053.81 233.502ZM1075.57 221.897L1072.83 221.743C1072.86 222.605 1072.83 223.313 1072.71 224.298C1072.64 224.852 1072.52 225.529 1072.37 226.33C1072.18 226.33 1072.03 226.33 1071.84 226.33C1070 226.33 1067.63 226.083 1066 225.806L1066.03 228.208C1067.81 228.392 1069.78 228.515 1071.87 228.515H1071.91C1071.14 231.994 1069.9 236.396 1068.33 239.474L1070.64 240.305C1070.92 239.751 1071.2 239.351 1071.6 238.889C1073.63 236.427 1077.02 235.164 1080.68 235.164C1084.28 235.164 1086.19 236.95 1086.19 239.259C1086.19 244.307 1079.26 245.538 1072.15 244.553L1072.77 246.985C1082.13 248.001 1088.71 245.6 1088.71 239.197C1088.71 235.595 1085.85 233.102 1080.96 233.102C1077.72 233.102 1074.95 233.841 1072.27 235.719C1072.95 233.964 1073.66 231.04 1074.21 228.454C1078.22 228.3 1083.11 227.777 1086.71 227.161L1086.68 224.791C1082.89 225.622 1078.37 226.114 1074.68 226.268C1074.83 225.56 1074.92 224.975 1075.01 224.483C1075.17 223.682 1075.35 222.728 1075.57 221.897ZM1109.34 230.67L1111.03 229.346C1110.17 228.423 1108.54 227.038 1107.71 226.453L1106.01 227.746C1107.15 228.546 1108.44 229.716 1109.34 230.67ZM1101.92 228.762L1099.46 229.716C1099.92 230.208 1100.41 230.978 1100.72 231.47C1101.09 232.086 1101.58 233.01 1102.1 234.087C1100.93 234.61 1099.86 235.072 1098.99 235.411C1098.56 235.565 1097.73 235.842 1096.84 236.057L1098.01 238.458C1099.06 237.996 1100.9 237.042 1103.03 236.026C1103.37 236.796 1103.7 237.565 1104.04 238.304C1105.37 241.444 1106.66 245.477 1107.43 248.401L1109.86 247.724C1109 245.046 1107.46 240.428 1106.11 237.35C1105.8 236.673 1105.46 235.872 1105.09 235.072C1108.01 233.748 1111.15 232.579 1113.19 232.579C1115.96 232.579 1116.88 234.118 1116.88 235.411C1116.88 237.042 1115.89 238.581 1112.91 238.581C1111.68 238.581 1110.26 238.181 1109.31 237.719L1109.21 239.967C1110.11 240.336 1111.65 240.736 1113.03 240.736C1117.28 240.736 1119.19 238.581 1119.19 235.411C1119.19 232.825 1117.34 230.424 1113.28 230.424C1110.85 230.424 1107.34 231.809 1104.17 233.164C1103.58 231.994 1103.06 230.947 1102.66 230.208C1102.44 229.808 1102.17 229.254 1101.92 228.762ZM1130.98 224.514L1127.99 224.452C1128.18 225.191 1128.21 226.484 1128.21 227.192C1128.21 228.977 1128.27 232.733 1128.55 235.411C1129.38 243.383 1132.18 246.277 1135.1 246.277C1137.17 246.277 1139.04 244.492 1140.89 239.259L1138.95 237.073C1138.15 240.151 1136.7 243.353 1135.13 243.353C1132.95 243.353 1131.44 239.936 1130.95 234.795C1130.73 232.24 1130.7 229.439 1130.73 227.499C1130.73 226.699 1130.85 225.252 1130.98 224.514ZM1147.02 225.375L1144.61 226.207C1147.57 229.808 1149.42 236.119 1149.97 241.69L1152.43 240.675C1151.97 235.472 1149.76 228.946 1147.02 225.375ZM1162.78 242.768C1162.78 241.352 1164.38 240.213 1167.3 240.213C1168.32 240.213 1169.33 240.305 1170.29 240.521C1170.29 241.321 1170.32 242.06 1170.32 242.583C1170.32 244.707 1168.81 245.261 1167.06 245.261C1164.01 245.261 1162.78 244.184 1162.78 242.768ZM1172.53 221.558H1169.92C1169.98 221.989 1170.04 222.882 1170.04 223.405C1170.04 224.052 1170.04 224.791 1170.04 225.591C1169.55 225.591 1169.09 225.591 1168.63 225.591C1166.56 225.591 1162.75 225.283 1160.74 224.914L1160.78 227.192C1162.71 227.407 1166.5 227.715 1168.66 227.715C1169.12 227.715 1169.58 227.715 1170.01 227.715C1170.01 228.977 1170.01 230.332 1170.01 231.563C1170.01 231.717 1170.01 231.871 1170.01 232.025C1169.46 232.025 1168.9 232.025 1168.35 232.025C1166.32 232.025 1162.81 231.809 1160.59 231.44L1160.62 233.748C1162.84 233.995 1166.22 234.179 1168.32 234.179C1168.9 234.179 1169.49 234.179 1170.07 234.179C1170.1 235.503 1170.16 236.981 1170.2 238.366C1169.36 238.243 1168.5 238.181 1167.61 238.181C1163.18 238.181 1160.5 240.09 1160.5 242.891C1160.5 245.846 1162.9 247.416 1167.33 247.416C1171.33 247.416 1172.75 245.23 1172.75 243.106C1172.75 242.614 1172.72 241.967 1172.69 241.198C1175.77 242.306 1178.32 244.184 1180.14 245.846L1181.55 243.661C1179.8 242.214 1176.66 239.967 1172.57 238.858C1172.5 237.381 1172.41 235.719 1172.35 234.118C1175.27 234.025 1177.98 233.779 1180.88 233.41L1180.91 231.101C1178.11 231.532 1175.31 231.809 1172.32 231.932C1172.32 231.809 1172.32 231.686 1172.32 231.563C1172.32 230.424 1172.32 228.977 1172.32 227.623C1175.27 227.469 1178.2 227.192 1180.63 226.915L1180.66 224.667C1177.89 225.098 1175.09 225.375 1172.32 225.499C1172.32 224.698 1172.35 224.021 1172.35 223.621C1172.38 222.728 1172.44 222.112 1172.53 221.558ZM1204.98 221.62H1202.18C1202.21 221.866 1202.33 222.759 1202.36 223.559C1202.39 223.99 1202.42 224.729 1202.42 225.591C1197.84 225.653 1192.05 225.837 1188.63 225.899L1188.7 228.269C1192.54 227.992 1197.78 227.777 1202.46 227.746C1202.49 228.823 1202.49 229.931 1202.49 230.855C1201.87 230.639 1201.19 230.516 1200.42 230.516C1197.5 230.516 1195.01 232.825 1195.01 235.872C1195.01 239.228 1197.47 241.013 1200.05 241.013C1201.1 241.013 1201.99 240.736 1202.73 240.182C1201.5 242.983 1198.67 244.707 1194.58 245.631L1196.64 247.662C1203.81 245.507 1205.84 240.89 1205.84 236.734C1205.84 235.195 1205.5 233.841 1204.86 232.794C1204.83 231.378 1204.8 229.47 1204.8 227.715C1204.95 227.715 1205.07 227.715 1205.23 227.715C1209.72 227.715 1212.52 227.777 1214.25 227.869L1214.28 225.591C1212.8 225.591 1209.01 225.56 1205.26 225.56C1205.1 225.56 1204.95 225.56 1204.8 225.56C1204.8 224.729 1204.83 224.021 1204.83 223.559C1204.86 223.159 1204.92 221.959 1204.98 221.62ZM1197.31 235.842C1197.31 233.841 1198.82 232.579 1200.42 232.579C1201.62 232.579 1202.67 233.164 1203.16 234.518C1203.44 237.442 1202.27 238.889 1200.45 238.889C1198.73 238.889 1197.31 237.75 1197.31 235.842ZM1230.84 238.551H1232.87L1233.48 226.607L1233.55 222.974H1230.16L1230.22 226.607L1230.84 238.551ZM1231.85 246.154C1232.93 246.154 1233.82 245.354 1233.82 244.122C1233.82 242.891 1232.93 242.06 1231.85 242.06C1230.78 242.06 1229.88 242.891 1229.88 244.122C1229.88 245.354 1230.75 246.154 1231.85 246.154Z" fill="white"/>
<path d="M1053.22 0L1378.71 62.8102L1346.67 123.334L1066 92.0901L1053.22 0Z" fill="white"/>
<path d="M1127.11 43.8031C1127.45 43.8688 1127.7 44.0184 1127.86 44.2519C1128.03 44.4785 1128.08 44.7493 1128.02 45.0641L1127.65 46.9533L1114.99 44.5098L1115.19 43.4631C1115.23 43.2504 1115.32 43.0374 1115.45 42.824C1115.59 42.6038 1115.77 42.419 1116.01 42.2695L1122.69 37.7345C1123.25 37.3483 1123.76 36.9734 1124.21 36.6101C1124.67 36.2483 1125.06 35.8785 1125.39 35.5007C1125.72 35.1228 1125.99 34.7292 1126.2 34.3198C1126.42 33.9036 1126.58 33.4529 1126.67 32.9679C1126.76 32.5254 1126.77 32.1259 1126.7 31.7694C1126.64 31.4044 1126.51 31.084 1126.32 30.8082C1126.14 30.5341 1125.89 30.3098 1125.58 30.1351C1125.28 29.9536 1124.92 29.8234 1124.51 29.7446C1124.14 29.6723 1123.78 29.6603 1123.43 29.7085C1123.1 29.7499 1122.79 29.8446 1122.51 29.9927C1122.22 30.1323 1121.97 30.3133 1121.75 30.5358C1121.53 30.7582 1121.35 31.0144 1121.21 31.3043C1120.99 31.6679 1120.75 31.8913 1120.5 31.9746C1120.24 32.0579 1119.9 32.0236 1119.48 31.8718L1117.88 31.258C1118.18 30.3976 1118.57 29.6709 1119.07 29.0777C1119.56 28.4761 1120.13 28.0066 1120.76 27.6691C1121.4 27.3249 1122.09 27.1103 1122.84 27.0253C1123.6 26.9335 1124.39 26.9664 1125.2 27.124C1126.06 27.2882 1126.81 27.5661 1127.47 27.9577C1128.13 28.3408 1128.66 28.8105 1129.07 29.3669C1129.49 29.9233 1129.77 30.552 1129.93 31.2529C1130.08 31.9539 1130.09 32.7 1129.93 33.4914C1129.8 34.1722 1129.58 34.7822 1129.26 35.3215C1128.96 35.8623 1128.58 36.3637 1128.14 36.8257C1127.7 37.2892 1127.21 37.7243 1126.67 38.1308C1126.12 38.5373 1125.55 38.9483 1124.96 39.3636L1119.98 42.8112C1120.4 42.7692 1120.82 42.7562 1121.22 42.7722C1121.63 42.7813 1122.02 42.8204 1122.37 42.8893L1127.11 43.8031ZM1144.78 40.6856C1144.47 42.2939 1144.02 43.6601 1143.45 44.7842C1142.88 45.9013 1142.21 46.788 1141.45 47.4441C1140.7 48.1019 1139.87 48.5418 1138.96 48.7638C1138.06 48.979 1137.13 48.9938 1136.17 48.8082C1135.21 48.6226 1134.35 48.263 1133.6 47.7293C1132.85 47.1887 1132.25 46.473 1131.8 45.582C1131.35 44.691 1131.06 43.6213 1130.95 42.3727C1130.84 41.1157 1130.94 39.683 1131.25 38.0747C1131.56 36.4578 1132 35.0908 1132.57 33.9737C1133.14 32.8565 1133.8 31.969 1134.55 31.3113C1135.31 30.6535 1136.13 30.2162 1137.02 29.9994C1137.92 29.7757 1138.85 29.7567 1139.81 29.9422C1140.77 30.1278 1141.63 30.4917 1142.38 31.0339C1143.14 31.5693 1143.75 32.2824 1144.2 33.1734C1144.67 34.066 1144.95 35.1366 1145.07 36.3851C1145.19 37.6353 1145.09 39.0688 1144.78 40.6856ZM1141.52 40.0575C1141.78 38.7215 1141.9 37.5964 1141.87 36.6821C1141.85 35.7678 1141.72 35.0191 1141.48 34.436C1141.26 33.8545 1140.96 33.4206 1140.57 33.1343C1140.19 32.8394 1139.76 32.6476 1139.3 32.559C1138.85 32.4719 1138.39 32.4937 1137.93 32.6244C1137.47 32.7482 1137.03 33.0384 1136.61 33.4951C1136.18 33.9518 1135.79 34.5995 1135.43 35.4382C1135.07 36.2786 1134.76 37.3668 1134.5 38.7028C1134.25 40.0388 1134.13 41.1631 1134.14 42.0758C1134.17 42.99 1134.3 43.7379 1134.52 44.3194C1134.74 44.9009 1135.04 45.3382 1135.42 45.6314C1135.8 45.9178 1136.22 46.1044 1136.67 46.1915C1137.13 46.2802 1137.6 46.2634 1138.06 46.1413C1138.53 46.0107 1138.97 45.717 1139.4 45.2603C1139.83 44.8053 1140.23 44.1584 1140.59 43.3196C1140.96 42.4809 1141.27 41.3935 1141.52 40.0575ZM1156.73 49.5184C1157.07 49.5841 1157.32 49.7337 1157.48 49.9672C1157.64 50.1938 1157.7 50.4645 1157.64 50.7794L1157.27 52.6685L1144.61 50.2251L1144.81 49.1784C1144.85 48.9657 1144.94 48.7526 1145.07 48.5393C1145.21 48.3191 1145.39 48.1343 1145.62 47.9848L1152.31 43.4497C1152.87 43.0635 1153.38 42.6887 1153.83 42.3253C1154.28 41.9636 1154.68 41.5938 1155.01 41.2159C1155.34 40.8381 1155.61 40.4445 1155.82 40.0351C1156.04 39.6189 1156.2 39.1682 1156.29 38.6832C1156.38 38.2407 1156.39 37.8412 1156.32 37.4846C1156.26 37.1196 1156.13 36.7993 1155.94 36.5235C1155.75 36.2494 1155.51 36.025 1155.19 35.8504C1154.89 35.6688 1154.54 35.5386 1154.13 35.4598C1153.76 35.3876 1153.4 35.3756 1153.05 35.4238C1152.72 35.4651 1152.41 35.5599 1152.12 35.708C1151.84 35.8476 1151.59 36.0286 1151.37 36.251C1151.15 36.4735 1150.97 36.7297 1150.82 37.0196C1150.6 37.3831 1150.37 37.6066 1150.11 37.6899C1149.86 37.7732 1149.52 37.7389 1149.1 37.5871L1147.5 36.9733C1147.8 36.1129 1148.19 35.3862 1148.69 34.793C1149.18 34.1914 1149.74 33.7218 1150.37 33.3844C1151.01 33.0401 1151.71 32.8255 1152.46 32.7406C1153.22 32.6487 1154.01 32.6817 1154.82 32.8393C1155.67 33.0035 1156.43 33.2814 1157.08 33.673C1157.74 34.0561 1158.28 34.5258 1158.69 35.0822C1159.11 35.6386 1159.39 36.2673 1159.55 36.9682C1159.7 37.6691 1159.7 38.4153 1159.55 39.2067C1159.42 39.8875 1159.2 40.4975 1158.88 41.0367C1158.57 41.5776 1158.2 42.079 1157.76 42.5409C1157.32 43.0045 1156.83 43.4395 1156.29 43.8461C1155.74 44.2526 1155.17 44.6635 1154.58 45.0789L1149.6 48.5265C1150.02 48.4845 1150.43 48.4715 1150.84 48.4875C1151.25 48.4966 1151.63 48.5356 1151.99 48.6046L1156.73 49.5184ZM1171.54 52.3761C1171.88 52.4417 1172.13 52.5913 1172.28 52.8248C1172.45 53.0514 1172.51 53.3222 1172.44 53.637L1172.08 55.5262L1159.42 53.0827L1159.62 52.0361C1159.66 51.8233 1159.75 51.6103 1159.88 51.3969C1160.02 51.1767 1160.2 50.9919 1160.43 50.8424L1167.12 46.3074C1167.68 45.9212 1168.19 45.5464 1168.63 45.183C1169.09 44.8212 1169.49 44.4514 1169.82 44.0736C1170.14 43.6957 1170.41 43.3021 1170.63 42.8927C1170.85 42.4765 1171 42.0259 1171.1 41.5408C1171.18 41.0983 1171.19 40.6988 1171.13 40.3423C1171.07 39.9773 1170.94 39.6569 1170.75 39.3811C1170.56 39.107 1170.31 38.8827 1170 38.708C1169.7 38.5265 1169.35 38.3963 1168.94 38.3175C1168.57 38.2452 1168.21 38.2332 1167.86 38.2814C1167.53 38.3228 1167.22 38.4175 1166.93 38.5656C1166.65 38.7052 1166.4 38.8862 1166.18 39.1087C1165.96 39.3311 1165.78 39.5873 1165.63 39.8772C1165.41 40.2408 1165.18 40.4642 1164.92 40.5475C1164.67 40.6308 1164.33 40.5965 1163.91 40.4447L1162.31 39.8309C1162.6 38.9706 1163 38.2438 1163.49 37.6506C1163.99 37.049 1164.55 36.5795 1165.18 36.2421C1165.82 35.8978 1166.52 35.6832 1167.27 35.5982C1168.03 35.5064 1168.81 35.5393 1169.63 35.6969C1170.48 35.8611 1171.24 36.139 1171.89 36.5306C1172.55 36.9137 1173.09 37.3834 1173.5 37.9398C1173.91 38.4962 1174.2 39.1249 1174.36 39.8258C1174.51 40.5268 1174.51 41.2729 1174.36 42.0643C1174.23 42.7451 1174.01 43.3551 1173.69 43.8944C1173.38 44.4352 1173.01 44.9367 1172.57 45.3986C1172.13 45.8621 1171.64 46.2972 1171.1 46.7037C1170.55 47.1102 1169.98 47.5212 1169.39 47.9365L1164.41 51.3841C1164.83 51.3421 1165.24 51.3292 1165.65 51.3451C1166.06 51.3542 1166.44 51.3933 1166.8 51.4622L1171.54 52.3761ZM1183.79 35.1986C1182.05 38.3056 1179.43 41.189 1176.75 42.7369C1177.4 43.3138 1178.51 44.5862 1178.99 45.2356C1181.71 43.3764 1184.66 40.1338 1186.75 36.591L1183.79 35.1986ZM1183.76 38.2124L1181.71 40.888L1199.43 44.3069L1200 41.3455L1183.76 38.2124ZM1180.79 43.8875L1179.2 52.1078L1182.29 52.7039L1183.33 47.3428L1197.7 50.1163L1198.25 47.2571L1180.79 43.8875ZM1175.46 49.8233L1174.89 52.7846L1198.38 57.3168L1198.95 54.3555L1175.46 49.8233ZM1189.16 40.8427L1185.37 60.4745L1188.54 61.0854L1192.33 41.4536L1189.16 40.8427ZM1212.45 60.8674L1212 63.2288L1201.79 61.2583L1202.24 58.8969L1205.98 59.6186L1208.06 48.8581C1208.14 48.4326 1208.24 47.9968 1208.35 47.5507L1205.27 49.2594C1205.09 49.349 1204.92 49.396 1204.76 49.4005C1204.61 49.3981 1204.47 49.371 1204.34 49.3192C1204.22 49.2691 1204.11 49.2044 1204.02 49.1251C1203.93 49.0373 1203.87 48.9502 1203.83 48.8637L1203.1 47.3058L1209.65 43.6054L1212.24 44.1054L1209.13 60.227L1212.45 60.8674ZM1229.54 57.0425C1229.23 58.6508 1228.79 60.017 1228.21 61.141C1227.64 62.2582 1226.98 63.1448 1226.21 63.801C1225.46 64.4587 1224.63 64.8986 1223.72 65.1207C1222.82 65.3358 1221.89 65.3506 1220.93 65.165C1219.97 64.9795 1219.11 64.6198 1218.36 64.0861C1217.62 63.5456 1217.02 62.8298 1216.56 61.9388C1216.11 61.0478 1215.83 59.9781 1215.71 58.7296C1215.6 57.4725 1215.7 56.0398 1216.01 54.4315C1216.33 52.8147 1216.77 51.4477 1217.33 50.3305C1217.9 49.2134 1218.56 48.3259 1219.32 47.6681C1220.07 47.0103 1220.89 46.573 1221.78 46.3562C1222.68 46.1326 1223.61 46.1135 1224.57 46.2991C1225.54 46.4846 1226.39 46.8485 1227.14 47.3907C1227.91 47.9261 1228.51 48.6393 1228.97 49.5302C1229.43 50.4228 1229.72 51.4934 1229.83 52.7419C1229.95 53.9921 1229.86 55.4256 1229.54 57.0425ZM1226.29 56.4143C1226.55 55.0783 1226.66 53.9532 1226.64 53.0389C1226.61 52.1247 1226.48 51.376 1226.25 50.7928C1226.03 50.2113 1225.72 49.7774 1225.33 49.4911C1224.95 49.1962 1224.53 49.0045 1224.07 48.9158C1223.62 48.8288 1223.16 48.8506 1222.69 48.9812C1222.24 49.105 1221.8 49.3952 1221.37 49.8519C1220.95 50.3086 1220.55 50.9563 1220.19 51.795C1219.83 52.6354 1219.53 53.7236 1219.27 55.0596C1219.01 56.3956 1218.89 57.52 1218.91 58.4326C1218.94 59.3468 1219.06 60.0947 1219.28 60.6762C1219.51 61.2577 1219.81 61.6951 1220.18 61.9883C1220.57 62.2746 1220.99 62.4613 1221.44 62.5483C1221.9 62.637 1222.36 62.6203 1222.82 62.4981C1223.29 62.3675 1223.74 62.0738 1224.16 61.6171C1224.59 61.1621 1224.99 60.5152 1225.36 59.6765C1225.72 58.8377 1226.03 57.7504 1226.29 56.4143ZM1239.22 47.2456L1238.65 50.2325L1251.41 52.6957L1251.99 49.7088L1239.22 47.2456ZM1238.07 53.352L1237.51 56.2623L1250.37 58.7452L1250.94 55.8348L1238.07 53.352ZM1236.77 59.3777L1236.2 62.3391L1249.02 64.8121L1249.59 61.8507L1236.77 59.3777ZM1237.13 46.8417L1235.5 55.2918C1234.74 59.1977 1233.44 64.0559 1228.92 66.6003C1229.5 67.1369 1230.53 68.5271 1230.87 69.254C1235.88 66.4614 1237.78 60.3398 1238.64 55.8977L1240.27 47.4476L1237.13 46.8417ZM1250.56 49.4329L1246.92 68.2733C1246.82 68.8094 1246.58 68.9487 1245.99 68.861C1245.37 68.7427 1243.25 68.3594 1241.46 67.9075C1241.81 68.8229 1242.11 70.4169 1242.11 71.3705C1244.77 71.8828 1246.59 72.1815 1247.92 71.8819C1249.19 71.5979 1249.8 70.7626 1250.15 68.95L1253.8 50.0585L1250.56 49.4329ZM1258.94 53.8583L1258.36 56.8962L1280.85 61.2363L1281.44 58.1983L1258.94 53.8583ZM1258.89 60.4671L1258.31 63.4795L1278.45 67.3664L1279.03 64.354L1258.89 60.4671ZM1269.22 51.7898L1264.59 75.7616L1267.84 76.3872L1272.46 52.4155L1269.22 51.7898ZM1266.38 63.634C1263.65 66.4977 1259.02 68.992 1254.84 69.9331C1255.42 70.7347 1256.2 72.1827 1256.59 73.0776C1260.88 71.7075 1265.48 68.7035 1268.61 65.1231L1266.38 63.634ZM1270.75 64.3183L1268.11 64.841C1269.73 69.3121 1272.87 73.9158 1276.34 76.7579C1277.04 76.0189 1278.31 74.9651 1279.19 74.4746C1275.61 72.036 1272.21 67.9899 1270.75 64.3183ZM1288.37 67.5338L1282.47 66.3958L1281.93 69.204L1284.84 69.7656L1283.82 75.0501L1286.81 75.6265L1288.37 67.5338ZM1287.13 73.9671L1284.4 73.44C1283.02 74.153 1281.49 74.811 1280.2 75.2786L1281.08 78.6788C1282.65 77.8422 1284.02 77.0731 1285.33 76.2943C1286.58 78.6008 1288.58 79.755 1291.69 80.5141C1294.74 81.2073 1299.95 82.1613 1303.07 82.6042C1303.4 81.7402 1304.13 80.3993 1304.63 79.7534C1301.13 79.3692 1295.27 78.3176 1292.27 77.6342C1289.62 76.9893 1287.87 75.8844 1287.13 73.9671ZM1285.4 57.0038C1286.66 58.1732 1288.15 59.8916 1288.76 61.0145L1291.33 59.3653C1290.64 58.2278 1289.08 56.6015 1287.8 55.5343L1285.4 57.0038ZM1283.36 61.9587C1284.7 63.0918 1286.28 64.774 1286.94 65.8811L1289.5 64.1505C1288.74 62.9981 1287.09 61.4337 1285.75 60.3821L1283.36 61.9587ZM1293.89 59.5162L1293.36 62.2734L1306.46 64.8006L1306.99 62.0434L1293.89 59.5162ZM1292.48 64.064L1291.96 66.7701L1300.59 68.4352L1301.11 65.7291L1292.48 64.064ZM1295.54 56.8688C1294.08 59.209 1291.89 61.3553 1289.61 62.5027C1290.23 63.1002 1291.32 64.3422 1291.78 64.9866C1294.12 63.5583 1296.67 61.0578 1298.45 58.2769L1295.54 56.8688ZM1301.04 65.7143C1291.27 69.4161 1290.58 70.7925 1290.28 72.3242C1289.93 74.2694 1291.15 75.7756 1294.37 76.3963L1300.03 77.4899C1302.74 78.0121 1304.02 77.4374 1305.11 73.5445C1304.25 73.1934 1303.35 72.6743 1302.6 72.0267C1302.03 74.5648 1301.62 74.7511 1300.75 74.5836L1294.86 73.4456C1293.94 73.2683 1293.44 72.9861 1293.54 72.4756C1293.67 71.7608 1294.48 70.8833 1303.5 67.8851C1303.72 67.7409 1303.91 67.5407 1304.05 67.3817L1302.17 65.8545L1301.5 65.803L1301.04 65.7143ZM1313.63 63.6965L1312.22 70.9978C1312.07 71.7721 1311.89 72.5264 1311.67 73.2604C1311.45 73.986 1311.2 74.7543 1310.92 75.5652L1308.77 75.1514C1308.82 74.2945 1308.87 73.4884 1308.94 72.7333C1309 71.9697 1309.11 71.2007 1309.26 70.4263L1310.67 63.125L1313.63 63.6965ZM1306.95 79.7505C1307 79.4867 1307.09 79.2447 1307.23 79.0245C1307.38 78.8059 1307.56 78.6279 1307.76 78.4906C1307.97 78.3549 1308.21 78.2589 1308.46 78.2028C1308.72 78.1467 1308.99 78.1449 1309.26 78.1974C1309.52 78.2483 1309.76 78.3478 1309.98 78.4959C1310.2 78.644 1310.38 78.8196 1310.52 79.0226C1310.66 79.2273 1310.76 79.4586 1310.82 79.7166C1310.88 79.9746 1310.88 80.2355 1310.83 80.4993C1310.77 80.7716 1310.67 81.017 1310.53 81.2356C1310.38 81.4456 1310.2 81.6185 1309.99 81.7542C1309.79 81.8916 1309.56 81.9841 1309.3 82.0317C1309.04 82.0878 1308.78 82.0904 1308.52 82.0395C1308.25 81.987 1308 81.8867 1307.78 81.7386C1307.56 81.599 1307.38 81.4269 1307.23 81.2222C1307.09 81.0191 1307 80.7929 1306.94 80.5434C1306.89 80.2871 1306.89 80.0228 1306.95 79.7505ZM1119.43 57.4392L1117.12 55.2979C1116.52 55.3938 1115.63 55.3284 1114.84 55.1757C1114.05 55.023 1108.68 53.9885 1107.56 53.7717L1105.82 56.4554L1114.43 58.1156C1113.66 59.9259 1111.58 62.7037 1109.46 64.3599C1106.73 66.4538 1103.47 68.128 1097.95 68.7058L1100.45 71.9677C1105.61 71.0047 1109.13 69.2472 1112.13 66.7538C1115 64.3684 1117.11 61.2538 1118.24 59.0892C1118.57 58.4904 1119.06 57.8701 1119.43 57.4392ZM1111.89 51.7741L1108.38 49.8246C1107.97 50.6737 1107.21 51.7446 1106.71 52.2834C1105.03 54.2375 1102.15 57.0973 1097.16 58.9668L1099.61 61.6374C1103.77 59.845 1107.5 56.8316 1109.83 54.0776C1110.22 53.5957 1111.11 52.5494 1111.89 51.7741ZM1143.25 57.9306L1139.39 57.1868C1139.36 57.9213 1139.28 58.753 1139.07 59.7997C1138.86 60.8974 1138.39 63.3482 1138.14 64.6247C1137.37 68.6072 1136.65 70.4529 1134.54 72.0326C1132.66 73.3915 1130.43 73.9675 1127.77 74.062L1129.9 77.413C1131.88 77.1599 1134.75 76.442 1136.79 74.9035C1139.11 73.1796 1140.64 71.0378 1141.7 65.5235C1141.94 64.2726 1142.42 61.7963 1142.67 60.4943C1142.88 59.4476 1143.06 58.6356 1143.25 57.9306ZM1131.38 55.8795L1127.68 55.1652C1127.64 55.7672 1127.5 56.6656 1127.41 57.1251C1127.19 58.2484 1126.03 64.2733 1125.75 65.7284C1125.6 66.5198 1125.33 67.5007 1125.19 67.9503L1128.91 68.6696C1128.98 68.0726 1129.12 67.0671 1129.24 66.4289C1129.52 64.9992 1130.69 58.9233 1130.91 57.8C1131.06 57.0086 1131.22 56.4569 1131.38 55.8795ZM1151.44 61.5771L1150.76 65.1002C1151.44 65.1517 1152.52 65.3075 1153.21 65.4405L1167.12 68.1253C1167.86 68.2682 1168.75 68.4917 1169.47 68.7111L1170.15 65.1881C1169.42 65.1523 1168.51 65.0565 1167.74 64.9087L1153.83 62.2238C1153.14 62.0908 1152.08 61.8073 1151.44 61.5771ZM1155.78 78.7267L1159.33 79.4115L1161.99 65.6513L1158.44 64.9666L1155.78 78.7267ZM1147.18 74.8944L1146.47 78.5706C1147.32 78.6565 1148.25 78.8083 1148.99 78.9512L1165.84 82.2026C1166.42 82.3159 1167.49 82.5483 1168.19 82.7628L1168.9 79.0866C1168.22 79.0351 1167.38 79.0052 1166.49 78.8327L1149.64 75.5814C1148.87 75.4336 1147.97 75.1797 1147.18 74.8944ZM1173.5 74.043L1174.46 77.5651C1178.73 77.1436 1183.23 76.027 1186.45 74.8732C1189.81 73.642 1193.39 71.8432 1196.17 69.9429L1193.91 66.8069C1191.86 68.5035 1188.46 70.4948 1185.55 71.6006C1182.35 72.8104 1178.3 73.7505 1173.5 74.043ZM1184.69 73.1565L1182.63 83.8021C1182.42 84.9254 1182.01 86.5141 1181.79 87.107L1185.84 87.8903C1185.79 87.2176 1186.04 85.625 1186.26 84.5017L1188.48 72.9881L1184.69 73.1565ZM1207.75 78.5328L1205.03 80.4175C1207.65 82.883 1211.81 87.3931 1213.63 89.915L1216.64 87.4777C1214.63 85.1304 1210.54 80.9513 1207.75 78.5328ZM1220.61 76.5131L1218.32 74.4023C1217.69 74.4677 1216.83 74.4328 1216.03 74.2801L1208.76 72.8761L1207.03 75.5343L1215.66 77.1994C1214.79 79.097 1212.64 81.7274 1210.54 83.4142C1207.85 85.5434 1204.3 87.6377 1198.64 88.2675L1201.11 91.3919C1206.34 90.4947 1210.16 88.266 1213.13 85.7422C1215.98 83.3518 1218.17 80.3846 1219.39 78.1837C1219.74 77.5898 1220.21 76.9391 1220.61 76.5131ZM1212.92 70.9511L1209.44 69.0879C1209.04 69.9371 1208.27 71.008 1207.77 71.5468C1206.04 73.5166 1203.02 76.5609 1198.02 78.4559L1200.34 81.1019C1204.5 79.2839 1208.53 76.0085 1210.83 73.2496C1211.24 72.7726 1212.13 71.7264 1212.92 70.9511ZM1224.65 81.9266L1223.87 85.9602C1224.85 86.0708 1226.58 86.3242 1228.01 86.6001C1231.02 87.1814 1239.42 88.8022 1241.74 89.2505C1242.82 89.4574 1244.09 89.8363 1244.7 89.98L1245.48 85.9464C1244.78 85.8645 1243.63 85.7754 1242.43 85.5438C1240.16 85.1054 1231.74 83.4797 1228.72 82.8984C1227.4 82.6422 1225.58 82.1854 1224.65 81.9266ZM1259.34 81.3398L1258.88 83.7651L1272.89 86.4696L1273.36 84.0444L1259.34 81.3398ZM1259.37 84.8937L1258.93 87.1913L1271.72 89.6594L1272.16 87.3618L1259.37 84.8937ZM1257.54 88.0625L1257.06 90.5643L1272.02 93.4511L1272.5 90.9493L1257.54 88.0625ZM1269.73 80.3517C1269.3 81.1959 1268.52 82.3689 1267.89 83.1738L1270.15 84.3261C1270.81 83.6843 1271.71 82.694 1272.62 81.6782L1269.73 80.3517ZM1261.36 79.6638C1261.72 80.6863 1262.04 82.0456 1262.09 82.8764L1264.82 82.45C1264.75 81.6143 1264.33 80.3168 1263.91 79.3355L1261.36 79.6638ZM1269.5 93.4682C1268.5 94.3877 1266.84 95.5768 1265.69 96.2272L1267.36 98.1127C1268.54 97.4928 1270.13 96.503 1271.48 95.5454L1269.5 93.4682ZM1257.17 92.5981C1257.9 93.7711 1258.7 95.3566 1258.99 96.3643L1261.48 95.2562C1261.14 94.2642 1260.27 92.7454 1259.53 91.6235L1257.17 92.5981ZM1254.58 98.082L1255.41 100.917C1257.21 100.338 1259.45 99.6042 1261.44 98.9024L1261.12 96.2733C1258.71 96.973 1256.24 97.6883 1254.58 98.082ZM1264.57 84.0427L1261.39 100.509C1261.34 100.79 1261.21 100.898 1260.9 100.839C1260.6 100.779 1259.6 100.587 1258.74 100.394C1258.96 101.178 1259.08 102.447 1259.01 103.253C1260.62 103.563 1261.85 103.749 1262.78 103.452C1263.69 103.15 1264.06 102.454 1264.33 101.075L1267.5 84.6092L1264.57 84.0427ZM1265.77 92.7489L1263.69 92.8242C1264.07 97.3446 1265.55 101.337 1268.51 103.816C1269.1 103.108 1270.21 102.157 1270.93 101.714C1267.92 99.7559 1266.24 96.3866 1265.77 92.7489ZM1249.86 82.0516L1249.31 84.8854L1257.76 86.516L1258.31 83.6822L1249.86 82.0516ZM1253.99 77.3681L1249.37 101.34L1252.15 101.877L1256.78 77.9051L1253.99 77.3681ZM1252.55 84.583C1251.34 87.7119 1249.13 91.4441 1247.07 93.3498C1247.37 94.1484 1247.8 95.4508 1247.9 96.317C1250.22 94.0373 1252.63 89.3909 1254.15 85.5002L1252.55 84.583ZM1254.89 86.9688L1253.38 87.9479C1253.84 89.2808 1254.81 92.4866 1255.09 94.0757L1257.09 92.1856C1256.8 91.3871 1255.32 87.7665 1254.89 86.9688ZM1287.05 89.7851L1286.57 92.2869L1295.38 93.9865L1295.86 91.4846L1287.05 89.7851ZM1279.81 103.719L1280.26 106.903C1282.78 106.835 1286.06 106.752 1289.15 106.634L1289.43 103.934C1285.89 103.887 1282.2 103.835 1279.81 103.719ZM1286.22 84.7783L1282.33 104.946L1285.31 105.523L1289.21 85.3546L1286.22 84.7783ZM1287.96 85.1132L1287.45 87.7427L1294.62 89.127L1293.34 95.7901L1286.16 94.4058L1285.65 97.0353L1295.84 99.0009L1298.14 87.0788L1287.96 85.1132ZM1291.33 96.3289L1288.69 96.2448C1288.7 102.099 1289.86 106.823 1293.55 109.786C1294.13 109.078 1295.26 108.051 1296.04 107.592C1292.6 105.208 1291.37 101.05 1291.33 96.3289ZM1294.63 98.953C1293.44 100.047 1291.47 101.335 1290.05 102.094L1291.68 103.945C1293.14 103.272 1295.05 102.158 1296.71 101.101L1294.63 98.953ZM1276.94 82.934L1272.52 105.834L1275.38 106.385L1279.27 86.2174L1282.79 86.8972L1283.32 84.1656L1276.94 82.934ZM1282.48 84.003L1282.3 84.9221C1281.58 86.4771 1280.01 89.9347 1278.82 92.0895C1280 94.1161 1280.07 95.7728 1279.84 96.9727C1279.7 97.6875 1279.48 98.1734 1279.1 98.3392C1278.84 98.448 1278.58 98.4498 1278.29 98.4211C1277.96 98.3571 1277.6 98.2881 1277.13 98.1435C1277.41 98.9931 1277.41 100.237 1277.29 101.008C1277.9 101.152 1278.56 101.28 1279.06 101.297C1279.66 101.334 1280.21 101.253 1280.67 101.026C1281.63 100.601 1282.22 99.603 1282.55 97.8926C1282.84 96.4119 1282.84 94.5863 1281.54 92.2699C1282.72 90.4314 1284.18 87.775 1285.3 85.687L1283.47 84.0881L1283.01 84.1065L1282.48 84.003ZM1305.02 95.2113L1304.46 98.1216L1318.57 100.846L1319.14 97.9355L1305.02 95.2113ZM1310.88 102.698L1310.33 105.557L1318.96 107.222L1319.51 104.363L1310.88 102.698ZM1310.13 97.9455L1307.83 109.893L1310.97 110.897L1313.35 98.5662L1310.13 97.9455ZM1303.52 99.4231C1302.24 103.73 1300.28 107.033 1297.12 108.543C1297.75 109.14 1298.84 110.489 1299.25 111.124C1302.64 109.184 1305.01 105.43 1306.67 100.376L1303.52 99.4231ZM1305.38 103.092L1302.71 103.452C1303.67 110.309 1307.42 112.277 1313.32 113.415L1319.75 114.657C1320.05 113.762 1320.85 112.38 1321.42 111.749C1319.7 111.47 1315.44 110.647 1314.09 110.386C1309.54 109.509 1306.11 108.105 1305.38 103.092ZM1311.89 88.5665L1310.99 93.2383L1314.25 93.8689L1315.16 89.1971L1311.89 88.5665ZM1302.1 89.3517L1300.86 95.7595L1303.87 96.3408L1304.55 92.8434L1320.33 95.8878L1319.65 99.3853L1322.82 99.9961L1324.05 93.5884L1302.1 89.3517Z" fill="black"/>
<path d="M1195.55 122.69L1186.15 139.718L1216.04 122.061L1226.82 105.808L1193.07 103.879L1195.55 122.69Z" fill="white"/>
</svg>
